# This file uses centimeters as units for non-parametric coordinates.

g default
v 0.245108 1.371259 0.000000
v -0.000000 1.176181 -0.017065
v -0.000000 1.176181 0.017065
v -0.000000 1.142517 -0.017065
v -0.000000 1.142517 0.017065
v -0.000000 1.108853 -0.017065
v -0.000000 1.108853 0.017065
v -0.000000 1.075189 -0.017065
v -0.000000 1.075189 0.017065
v -0.000000 1.041526 -0.017065
v -0.000000 1.041526 0.017065
v 0.245108 0.846447 0.000000
v 0.350718 0.977650 0.000000
v 0.373399 1.108853 0.000000
v 0.350718 1.240057 0.000000
v 0.114289 1.209854 0.012798
v 0.114289 1.209854 -0.012798
v 0.138091 1.159354 -0.012798
v 0.146393 1.108853 -0.012798
v 0.138091 1.058353 -0.012798
v 0.114289 1.007852 -0.012798
v 0.114289 1.007852 0.012798
v 0.138091 1.058353 0.012798
v 0.146393 1.108853 0.012798
v 0.138091 1.159354 0.012798
v 0.199984 0.945371 -0.004266
v 0.245414 1.027112 -0.004266
v 0.265260 1.108853 -0.004266
v 0.245414 1.190595 -0.004266
v 0.199984 1.272336 -0.004266
v 0.199984 1.272336 0.004266
v 0.245414 1.190595 0.004266
v 0.265260 1.108853 0.004266
v 0.245414 1.027112 0.004266
v 0.199984 0.945371 0.004266
v -0.245108 1.371259 0.000000
v -0.245108 0.846447 0.000000
v -0.350718 0.977650 0.000000
v -0.373398 1.108853 0.000000
v -0.350718 1.240057 0.000000
v -0.114289 1.209854 0.012798
v -0.114289 1.209854 -0.012798
v -0.138091 1.159354 -0.012798
v -0.146393 1.108853 -0.012798
v -0.138091 1.058353 -0.012798
v -0.114289 1.007852 -0.012798
v -0.114289 1.007852 0.012798
v -0.138091 1.058353 0.012798
v -0.146393 1.108853 0.012798
v -0.138091 1.159354 0.012798
v -0.199984 0.945371 -0.004266
v -0.245414 1.027112 -0.004266
v -0.265260 1.108853 -0.004266
v -0.245414 1.190595 -0.004266
v -0.199984 1.272336 -0.004266
v -0.199984 1.272336 0.004266
v -0.245414 1.190595 0.004266
v -0.265260 1.108853 0.004266
v -0.245414 1.027112 0.004266
v -0.199984 0.945371 0.004266
v -0.035355 -0.146845 -0.000000
v 0.000000 -0.146845 0.035355
v -0.035355 1.253006 -0.000000
v 0.000000 1.253006 0.035355
v -0.000000 1.253006 -0.035355
v 0.035355 1.253006 -0.000000
v -0.000000 -0.146845 -0.035355
v 0.035355 -0.146845 -0.000000
v -0.053033 1.277638 -0.000000
v -0.000000 1.277638 0.053033
v 0.053033 1.277638 -0.000000
v -0.000000 1.277638 -0.053033
v 0.000000 1.402259 0.000000
vt 0.500000 0.000000
vt 0.375000 0.250000
vt 0.625000 0.250000
vt 0.375000 0.500000
vt 0.625000 0.500000
vt 0.500000 0.750000
vt 0.875000 0.000000
vt 0.812500 0.000000
vt 0.750000 0.000000
vt 0.687500 0.000000
vt 0.875000 0.250000
vt 0.812500 0.250000
vt 0.750000 0.250000
vt 0.687500 0.250000
vt 0.125000 0.000000
vt 0.187500 0.000000
vt 0.250000 0.000000
vt 0.312500 0.000000
vt 0.125000 0.250000
vt 0.187500 0.250000
vt 0.250000 0.250000
vt 0.312500 0.250000
vt 0.598172 0.185923
vt 0.399051 0.185598
vt 0.317007 0.186749
vt 0.248421 0.186819
vt 0.189580 0.186809
vt 0.137021 0.185350
vt 0.410889 0.562836
vt 0.587785 0.563128
vt 0.862979 0.185350
vt 0.807510 0.186890
vt 0.746476 0.186851
vt 0.681531 0.186941
vt 0.125000 0.062500
vt 0.468750 0.687500
vt 0.187500 0.062500
vt 0.250000 0.062500
vt 0.312500 0.062500
vt 0.468750 0.062500
vt 0.531250 0.062500
vt 0.687500 0.062500
vt 0.750000 0.062500
vt 0.812500 0.062500
vt 0.531250 0.687500
vt 0.875000 0.062500
vt 0.468750 0.062500
vt 0.531250 0.062500
vt 0.598172 0.185923
vt 0.399051 0.185598
vt 0.410889 0.562836
vt 0.587785 0.563128
vt 0.531250 0.687500
vt 0.468750 0.687500
vt 0.812500 0.062500
vt 0.875000 0.062500
vt 0.862979 0.185350
vt 0.807510 0.186890
vt 0.750000 0.062500
vt 0.746476 0.186851
vt 0.687500 0.062500
vt 0.681531 0.186941
vt 0.125000 0.062500
vt 0.187500 0.062500
vt 0.189580 0.186809
vt 0.137021 0.185350
vt 0.250000 0.062500
vt 0.248421 0.186819
vt 0.312500 0.062500
vt 0.317007 0.186749
vt 0.625000 0.250000
vt 0.375000 0.250000
vt 0.312500 0.250000
vt 0.250000 0.250000
vt 0.187500 0.250000
vt 0.125000 0.250000
vt 0.375000 0.500000
vt 0.625000 0.500000
vt 0.875000 0.250000
vt 0.812500 0.250000
vt 0.750000 0.250000
vt 0.687500 0.250000
vt 0.125000 0.000000
vt 0.187500 0.000000
vt 0.250000 0.000000
vt 0.312500 0.000000
vt 0.500000 0.000000
vt 0.687500 0.000000
vt 0.750000 0.000000
vt 0.812500 0.000000
vt 0.875000 0.000000
vt 0.500000 0.750000
vt 0.375000 0.000000
vt 0.625000 0.000000
vt 0.625000 0.250000
vt 0.375000 0.250000
vt 0.375000 0.500000
vt 0.625000 0.500000
vt 0.625000 0.750000
vt 0.375000 0.750000
vt 0.625000 1.000000
vt 0.375000 1.000000
vt 0.875000 0.000000
vt 0.875000 0.250000
vt 0.125000 0.000000
vt 0.125000 0.250000
vt 0.625000 0.250000
vt 0.375000 0.250000
vt 0.625000 0.500000
vt 0.375000 0.500000
vt 0.500000 0.375000
vn -0.589148 0.808025 0.000000
vn -0.589148 0.808025 0.000000
vn -0.589148 0.808025 0.000000
vn -0.589148 0.808025 0.000000
vn -0.589143 -0.808029 0.000000
vn -0.589143 -0.808029 0.000000
vn -0.589143 -0.808029 0.000000
vn -0.589143 -0.808029 0.000000
vn 0.070268 -0.036788 0.996850
vn 0.070268 -0.036788 0.996850
vn 0.070268 -0.036788 0.996850
vn 0.070268 -0.036788 0.996850
vn 0.073084 -0.015556 0.997205
vn 0.073084 -0.015556 0.997204
vn 0.073084 -0.015556 0.997204
vn 0.073084 -0.015556 0.997205
vn 0.073084 0.015556 0.997204
vn 0.073084 0.015556 0.997204
vn 0.073084 0.015556 0.997204
vn 0.073084 0.015556 0.997205
vn 0.070268 0.036788 0.996850
vn 0.070268 0.036788 0.996850
vn 0.070268 0.036788 0.996850
vn 0.070268 0.036788 0.996850
vn 0.070268 -0.036788 -0.996850
vn 0.070268 -0.036788 -0.996850
vn 0.070268 -0.036788 -0.996850
vn 0.070268 -0.036788 -0.996850
vn 0.073084 -0.015556 -0.997204
vn 0.073084 -0.015556 -0.997205
vn 0.073084 -0.015556 -0.997205
vn 0.073084 -0.015556 -0.997205
vn 0.073084 0.015556 -0.997205
vn 0.073084 0.015556 -0.997205
vn 0.073084 0.015556 -0.997205
vn 0.073084 0.015556 -0.997205
vn 0.070268 0.036788 -0.996850
vn 0.070268 0.036788 -0.996850
vn 0.070268 0.036788 -0.996850
vn 0.070268 0.036788 -0.996850
vn -0.282623 0.959231 -0.000001
vn -0.282623 0.959231 -0.000001
vn -0.282623 0.959231 -0.000001
vn -0.282623 0.959231 -0.000001
vn 0.031978 0.009044 -0.999448
vn 0.031978 0.009044 -0.999448
vn 0.031978 0.009044 -0.999448
vn 0.031978 0.009044 -0.999448
vn 0.029804 0.002940 -0.999552
vn 0.029804 0.002940 -0.999552
vn 0.029804 0.002940 -0.999551
vn 0.029804 0.002940 -0.999552
vn 0.029804 -0.002940 -0.999552
vn 0.029804 -0.002940 -0.999551
vn 0.029804 -0.002940 -0.999551
vn 0.029804 -0.002940 -0.999551
vn 0.031978 -0.009044 -0.999448
vn 0.031978 -0.009044 -0.999448
vn 0.031978 -0.009044 -0.999448
vn 0.031978 -0.009044 -0.999448
vn -0.282628 -0.959230 0.000000
vn -0.282628 -0.959230 0.000000
vn -0.282628 -0.959230 0.000000
vn -0.282628 -0.959230 0.000000
vn 0.031978 -0.009043 0.999448
vn 0.031978 -0.009043 0.999448
vn 0.031978 -0.009043 0.999448
vn 0.031978 -0.009043 0.999448
vn 0.029804 -0.002939 0.999551
vn 0.029804 -0.002939 0.999552
vn 0.029804 -0.002939 0.999552
vn 0.029804 -0.002939 0.999551
vn 0.029804 0.002939 0.999552
vn 0.029804 0.002939 0.999552
vn 0.029804 0.002939 0.999552
vn 0.029804 0.002939 0.999552
vn 0.031978 0.009043 0.999448
vn 0.031978 0.009043 0.999448
vn 0.031978 0.009043 0.999448
vn 0.031978 0.009043 0.999448
vn 0.033343 -0.023650 -0.999164
vn 0.033343 -0.023650 -0.999164
vn 0.033343 -0.023650 -0.999164
vn 0.033343 -0.023650 -0.999164
vn 0.038178 -0.007624 -0.999242
vn 0.038178 -0.007624 -0.999242
vn 0.038178 -0.007624 -0.999242
vn 0.038178 -0.007624 -0.999242
vn 0.038178 0.007624 -0.999242
vn 0.038178 0.007624 -0.999242
vn 0.038178 0.007624 -0.999242
vn 0.038178 0.007624 -0.999242
vn 0.033343 0.023650 -0.999164
vn 0.033343 0.023650 -0.999164
vn 0.033343 0.023650 -0.999164
vn 0.033343 0.023650 -0.999164
vn -0.909813 0.415018 0.000000
vn -0.909813 0.415018 0.000000
vn -0.909813 0.415018 0.000000
vn 0.033343 0.023650 0.999164
vn 0.033343 0.023650 0.999164
vn 0.033343 0.023650 0.999164
vn 0.033343 0.023650 0.999164
vn 0.038178 0.007624 0.999242
vn 0.038178 0.007624 0.999242
vn 0.038178 0.007624 0.999242
vn 0.038178 0.007624 0.999242
vn 0.038178 -0.007624 0.999242
vn 0.038178 -0.007624 0.999242
vn 0.038178 -0.007624 0.999242
vn 0.038178 -0.007624 0.999242
vn 0.033343 -0.023650 0.999164
vn 0.033343 -0.023650 0.999164
vn 0.033343 -0.023650 0.999164
vn 0.033343 -0.023650 0.999164
vn -0.909815 -0.415013 0.000000
vn -0.909816 -0.415013 0.000000
vn -0.909815 -0.415013 0.000000
vn 0.589148 0.808025 0.000000
vn 0.589148 0.808025 0.000000
vn 0.589148 0.808025 0.000000
vn 0.589148 0.808025 0.000000
vn 0.589142 -0.808029 -0.000004
vn 0.589142 -0.808029 -0.000004
vn 0.589142 -0.808029 -0.000004
vn 0.589142 -0.808029 -0.000004
vn -0.070268 -0.036788 0.996850
vn -0.070268 -0.036788 0.996850
vn -0.070268 -0.036788 0.996850
vn -0.070268 -0.036788 0.996850
vn -0.073084 -0.015556 0.997204
vn -0.073084 -0.015556 0.997205
vn -0.073084 -0.015556 0.997205
vn -0.073084 -0.015556 0.997205
vn -0.073084 0.015556 0.997204
vn -0.073084 0.015556 0.997204
vn -0.073084 0.015556 0.997205
vn -0.073084 0.015556 0.997205
vn -0.070268 0.036788 0.996850
vn -0.070268 0.036788 0.996850
vn -0.070268 0.036788 0.996850
vn -0.070268 0.036788 0.996850
vn -0.070268 -0.036788 -0.996850
vn -0.070268 -0.036788 -0.996850
vn -0.070268 -0.036788 -0.996850
vn -0.070268 -0.036788 -0.996850
vn -0.073084 -0.015556 -0.997205
vn -0.073084 -0.015556 -0.997204
vn -0.073084 -0.015556 -0.997204
vn -0.073084 -0.015556 -0.997205
vn -0.073084 0.015556 -0.997205
vn -0.073084 0.015556 -0.997205
vn -0.073084 0.015556 -0.997205
vn -0.073084 0.015556 -0.997204
vn -0.070268 0.036788 -0.996850
vn -0.070268 0.036788 -0.996850
vn -0.070268 0.036788 -0.996850
vn -0.070268 0.036788 -0.996850
vn 0.282623 0.959231 0.000000
vn 0.282623 0.959231 0.000000
vn 0.282623 0.959231 0.000000
vn 0.282623 0.959231 0.000000
vn -0.031978 0.009044 -0.999448
vn -0.031978 0.009044 -0.999448
vn -0.031978 0.009044 -0.999448
vn -0.031978 0.009044 -0.999448
vn -0.029804 0.002940 -0.999552
vn -0.029804 0.002940 -0.999552
vn -0.029804 0.002940 -0.999552
vn -0.029804 0.002940 -0.999552
vn -0.029804 -0.002940 -0.999552
vn -0.029804 -0.002940 -0.999552
vn -0.029804 -0.002940 -0.999552
vn -0.029804 -0.002940 -0.999552
vn -0.031978 -0.009044 -0.999448
vn -0.031978 -0.009044 -0.999448
vn -0.031978 -0.009044 -0.999448
vn -0.031978 -0.009044 -0.999448
vn 0.282629 -0.959229 0.000000
vn 0.282629 -0.959230 0.000000
vn 0.282629 -0.959230 0.000000
vn 0.282629 -0.959229 0.000000
vn -0.031979 -0.009043 0.999448
vn -0.031979 -0.009043 0.999448
vn -0.031979 -0.009043 0.999448
vn -0.031979 -0.009043 0.999448
vn -0.029805 -0.002939 0.999552
vn -0.029805 -0.002939 0.999552
vn -0.029805 -0.002939 0.999551
vn -0.029805 -0.002939 0.999551
vn -0.029804 0.002939 0.999552
vn -0.029804 0.002939 0.999551
vn -0.029804 0.002939 0.999551
vn -0.029804 0.002939 0.999551
vn -0.031979 0.009043 0.999448
vn -0.031978 0.009043 0.999448
vn -0.031979 0.009043 0.999448
vn -0.031979 0.009043 0.999448
vn -0.033343 -0.023650 -0.999164
vn -0.033343 -0.023650 -0.999164
vn -0.033343 -0.023650 -0.999164
vn -0.033343 -0.023650 -0.999164
vn -0.038178 -0.007624 -0.999242
vn -0.038178 -0.007624 -0.999242
vn -0.038178 -0.007624 -0.999242
vn -0.038178 -0.007624 -0.999242
vn -0.038178 0.007624 -0.999242
vn -0.038178 0.007624 -0.999242
vn -0.038178 0.007624 -0.999242
vn -0.038178 0.007624 -0.999242
vn -0.033344 0.023651 -0.999164
vn -0.033344 0.023651 -0.999164
vn -0.033344 0.023651 -0.999164
vn -0.033344 0.023651 -0.999164
vn 0.909813 0.415018 0.000000
vn 0.909813 0.415018 0.000000
vn 0.909813 0.415018 0.000000
vn -0.033344 0.023651 0.999164
vn -0.033344 0.023651 0.999164
vn -0.033344 0.023651 0.999164
vn -0.033344 0.023651 0.999164
vn -0.038178 0.007624 0.999242
vn -0.038178 0.007624 0.999242
vn -0.038178 0.007624 0.999242
vn -0.038178 0.007624 0.999242
vn -0.038178 -0.007624 0.999242
vn -0.038178 -0.007624 0.999242
vn -0.038178 -0.007624 0.999242
vn -0.038178 -0.007624 0.999242
vn -0.033343 -0.023650 0.999164
vn -0.033343 -0.023650 0.999164
vn -0.033343 -0.023650 0.999164
vn -0.033343 -0.023650 0.999164
vn 0.909815 -0.415013 0.000000
vn 0.909815 -0.415013 0.000000
vn 0.909815 -0.415013 0.000000
vn -0.707107 0.000000 0.707107
vn -0.707107 0.000000 0.707107
vn -0.707107 0.000000 0.707107
vn -0.707107 0.000000 0.707107
vn 0.707106 0.000000 -0.707107
vn 0.707106 0.000000 -0.707107
vn 0.707106 0.000000 -0.707107
vn 0.707106 0.000000 -0.707107
vn 0.000000 -1.000000 0.000000
vn 0.000000 -1.000000 0.000000
vn 0.000000 -1.000000 0.000000
vn 0.000000 -1.000000 0.000000
vn 0.707107 0.000000 0.707106
vn 0.707107 0.000000 0.707106
vn 0.707107 0.000000 0.707106
vn 0.707107 0.000000 0.707106
vn -0.707107 0.000000 -0.707107
vn -0.707107 0.000000 -0.707106
vn -0.707107 0.000000 -0.707107
vn -0.707107 0.000000 -0.707107
vn -0.630560 -0.452536 0.630559
vn -0.630560 -0.452536 0.630559
vn -0.630560 -0.452536 0.630559
vn -0.630560 -0.452536 0.630559
vn 0.630561 -0.452534 0.630560
vn 0.630561 -0.452534 0.630560
vn 0.630561 -0.452534 0.630560
vn 0.630561 -0.452534 0.630560
vn 0.630560 -0.452535 -0.630560
vn 0.630560 -0.452535 -0.630560
vn 0.630560 -0.452535 -0.630560
vn 0.630560 -0.452535 -0.630560
vn -0.630560 -0.452534 -0.630561
vn -0.630560 -0.452534 -0.630561
vn -0.630561 -0.452534 -0.630561
vn -0.630560 -0.452534 -0.630561
vn -0.677116 0.288150 0.677114
vn -0.677116 0.288150 0.677114
vn -0.677116 0.288150 0.677114
vn 0.677115 0.288150 0.677115
vn 0.677115 0.288150 0.677115
vn 0.677115 0.288150 0.677115
vn 0.677115 0.288151 -0.677115
vn 0.677115 0.288151 -0.677115
vn 0.677115 0.288151 -0.677115
vn -0.677115 0.288151 -0.677115
vn -0.677115 0.288151 -0.677115
vn -0.677115 0.288151 -0.677115
g axe
f 30/40/1 17/24/2 16/23/3 31/41/4
f 21/29/5 26/36/6 35/45/7 22/30/8
f 34/44/9 23/32/10 22/31/11 35/46/12
f 33/43/13 24/33/14 23/32/15 34/44/16
f 32/42/17 25/34/18 24/33/19 33/43/20
f 31/41/21 16/23/22 25/34/23 32/42/24
f 26/35/25 21/28/26 20/27/27 27/37/28
f 27/37/29 20/27/30 19/26/31 28/38/32
f 28/38/33 19/26/34 18/25/35 29/39/36
f 29/39/37 18/25/38 17/24/39 30/40/40
f 17/24/41 2/2/42 3/3/43 16/23/44
f 18/25/45 4/22/46 2/2/47 17/24/48
f 19/26/49 6/21/50 4/22/51 18/25/52
f 20/27/53 8/20/54 6/21/55 19/26/56
f 21/28/57 10/19/58 8/20/59 20/27/60
f 10/4/61 21/29/62 22/30/63 11/5/64
f 23/32/65 9/12/66 11/11/67 22/31/68
f 24/33/69 7/13/70 9/12/71 23/32/72
f 25/34/73 5/14/74 7/13/75 24/33/76
f 16/23/77 3/3/78 5/14/79 25/34/80
f 12/15/81 26/35/82 27/37/83 13/16/84
f 13/16/85 27/37/86 28/38/87 14/17/88
f 14/17/89 28/38/90 29/39/91 15/18/92
f 15/18/93 29/39/94 30/40/95 1/1/96
f 1/1/97 30/40/98 31/41/99
f 1/1/100 31/41/101 32/42/102 15/10/103
f 15/10/104 32/42/105 33/43/106 14/9/107
f 14/9/108 33/43/109 34/44/110 13/8/111
f 13/8/112 34/44/113 35/46/114 12/7/115
f 26/36/116 12/6/117 35/45/118
f 55/47/119 56/48/120 41/49/121 42/50/122
f 46/51/123 47/52/124 60/53/125 51/54/126
f 59/55/127 60/56/128 47/57/129 48/58/130
f 58/59/131 59/55/132 48/58/133 49/60/134
f 57/61/135 58/59/136 49/60/137 50/62/138
f 56/48/139 57/61/140 50/62/141 41/49/142
f 51/63/143 52/64/144 45/65/145 46/66/146
f 52/64/147 53/67/148 44/68/149 45/65/150
f 53/67/151 54/69/152 43/70/153 44/68/154
f 54/69/155 55/47/156 42/50/157 43/70/158
f 42/50/159 41/49/160 3/71/161 2/72/162
f 43/70/163 42/50/164 2/72/165 4/73/166
f 44/68/167 43/70/168 4/73/169 6/74/170
f 45/65/171 44/68/172 6/74/173 8/75/174
f 46/66/175 45/65/176 8/75/177 10/76/178
f 10/77/179 11/78/180 47/52/181 46/51/182
f 48/58/183 47/57/184 11/79/185 9/80/186
f 49/60/187 48/58/188 9/80/189 7/81/190
f 50/62/191 49/60/192 7/81/193 5/82/194
f 41/49/195 50/62/196 5/82/197 3/71/198
f 37/83/199 38/84/200 52/64/201 51/63/202
f 38/84/203 39/85/204 53/67/205 52/64/206
f 39/85/207 40/86/208 54/69/209 53/67/210
f 40/86/211 36/87/212 55/47/213 54/69/214
f 36/87/215 56/48/216 55/47/217
f 36/87/218 40/88/219 57/61/220 56/48/221
f 40/88/222 39/89/223 58/59/224 57/61/225
f 39/89/226 38/90/227 59/55/228 58/59/229
f 38/90/230 37/91/231 60/56/232 59/55/233
f 51/54/234 60/53/235 37/92/236
f 61/93/237 62/94/238 64/95/239 63/96/240
f 65/97/241 66/98/242 68/99/243 67/100/244
f 67/100/245 68/99/246 62/101/247 61/102/248
f 62/94/249 68/103/250 66/104/251 64/95/252
f 67/105/253 61/93/254 63/96/255 65/106/256
f 63/96/257 64/95/258 70/107/259 69/108/260
f 64/95/261 66/98/262 71/109/263 70/107/264
f 66/98/265 65/97/266 72/110/267 71/109/268
f 65/97/269 63/96/270 69/108/271 72/110/272
f 69/108/273 70/107/274 73/111/275
f 70/107/276 71/109/277 73/111/278
f 71/109/279 72/110/280 73/111/281
f 72/110/282 69/108/283 73/111/284
