# This file uses centimeters as units for non-parametric coordinates.

g default
v 0.158509 -0.393538 -2.712972
v -0.531657 -0.265467 -0.960668
v -0.158509 -0.316159 2.712972
v 0.475528 -0.161400 1.921337
v 0.587785 -0.161400 0.000000
v 0.769421 -0.150318 -3.108790
v 0.056483 -0.002461 -4.847641
v -0.293893 -0.101083 -5.152246
v -0.769421 -0.126768 -2.938971
v -0.951057 -0.053055 0.000000
v -0.769421 -0.015234 3.108790
v -0.293893 -0.063225 4.336755
v 0.293893 -0.045862 4.812797
v 0.769421 -0.001597 2.783053
v 0.951057 -0.073925 0.000000
v 0.769421 0.073900 -2.796997
v -0.293893 0.012287 -5.026248
v -0.769421 0.150318 -3.108790
v -0.951057 0.150318 0.000000
v -0.769421 0.150318 3.108790
v 0.293893 0.070065 4.667120
v 0.769421 0.184974 2.568763
v 0.951057 0.100288 0.742131
v -0.109527 0.519495 -2.515064
v -0.459681 0.591612 -0.090323
v -0.377949 0.533620 1.318475
v -0.181636 0.393538 3.108789
v 0.203984 0.487249 1.521784
v 0.000000 -0.254302 0.000000
v -0.077780 0.709801 -0.512478
vt 0.100000 0.200000
vt 0.350000 0.200000
vt 0.600000 0.200000
vt 0.800000 0.200000
vt 0.900000 0.200000
vt 1.000000 0.200000
vt 0.000000 0.400000
vt 0.100000 0.500000
vt 0.200000 0.400000
vt 0.300000 0.400000
vt 0.400000 0.400000
vt 0.500000 0.400000
vt 0.600000 0.500000
vt 0.700000 0.400000
vt 0.800000 0.400000
vt 0.900000 0.400000
vt 1.000000 0.400000
vt 0.000000 0.600000
vt 0.200000 0.600000
vt 0.300000 0.600000
vt 0.400000 0.600000
vt 0.500000 0.600000
vt 0.700000 0.600000
vt 0.800000 0.600000
vt 0.900000 0.600000
vt 1.000000 0.600000
vt 0.183333 0.800000
vt 0.400000 0.800000
vt 0.500000 0.800000
vt 0.600000 0.800000
vt 0.733333 0.906667
vt 1.000000 0.800000
vt 0.250000 0.000000
vt 0.450000 0.000000
vt 0.750000 0.000000
vt 0.850000 0.000000
vt 0.950000 0.000000
vt 0.350000 1.000000
vt 0.450000 1.000000
vt 0.550000 1.000000
vt 0.263194 0.841667
vn 0.257029 -0.948331 -0.186021
vn 0.257029 -0.948331 -0.186021
vn 0.257029 -0.948331 -0.186021
vn 0.410719 -0.893155 -0.183258
vn 0.410719 -0.893155 -0.183259
vn 0.410719 -0.893155 -0.183259
vn -0.264026 -0.963072 -0.052746
vn -0.264026 -0.963072 -0.052746
vn -0.264027 -0.963072 -0.052746
vn -0.264026 -0.963072 -0.052746
vn -0.463478 -0.886085 -0.006420
vn -0.463478 -0.886085 -0.006420
vn -0.463478 -0.886085 -0.006420
vn -0.411708 -0.910756 0.031948
vn -0.411708 -0.910756 0.031948
vn -0.411708 -0.910756 0.031948
vn -0.411708 -0.910756 0.031948
vn -0.380156 -0.918198 0.111330
vn -0.380156 -0.918198 0.111330
vn -0.380156 -0.918198 0.111330
vn -0.089171 -0.985252 0.146036
vn -0.089171 -0.985252 0.146036
vn -0.089171 -0.985252 0.146036
vn 0.316600 -0.946801 0.057721
vn 0.316600 -0.946801 0.057721
vn 0.316600 -0.946801 0.057721
vn 0.316600 -0.946801 0.057721
vn 0.312474 -0.949314 0.034116
vn 0.312474 -0.949314 0.034116
vn 0.312474 -0.949314 0.034116
vn 0.312474 -0.949314 0.034116
vn 0.327134 -0.944847 0.015745
vn 0.327134 -0.944847 0.015745
vn 0.327134 -0.944847 0.015745
vn 0.327134 -0.944847 0.015745
vn 0.846853 0.431774 -0.310500
vn 0.846853 0.431774 -0.310500
vn 0.846853 0.431774 -0.310500
vn 0.348862 0.696675 -0.626848
vn 0.348862 0.696675 -0.626848
vn 0.348862 0.696675 -0.626848
vn -0.974346 -0.025100 -0.223650
vn -0.974346 -0.025100 -0.223650
vn -0.974346 -0.025100 -0.223650
vn -0.974346 -0.025100 -0.223650
vn -0.997994 -0.021097 -0.059689
vn -0.997994 -0.021097 -0.059689
vn -0.997994 -0.021097 -0.059689
vn -0.997994 -0.021097 -0.059689
vn -0.998298 0.000000 0.058327
vn -0.998298 0.000000 0.058327
vn -0.998298 0.000000 0.058327
vn -0.998298 0.000000 0.058327
vn -0.932520 0.000000 0.361118
vn -0.932520 0.000000 0.361118
vn -0.932520 0.000000 0.361118
vn -0.466508 0.692113 0.550772
vn -0.466508 0.692113 0.550772
vn -0.466508 0.692113 0.550772
vn 0.936229 0.269015 0.226067
vn 0.936229 0.269015 0.226067
vn 0.936229 0.269015 0.226067
vn 0.936229 0.269015 0.226067
vn 0.989370 -0.120054 0.082058
vn 0.989370 -0.120054 0.082058
vn 0.989370 -0.120054 0.082058
vn 0.989370 -0.120054 0.082058
vn 0.987268 0.148789 -0.056249
vn 0.987268 0.148789 -0.056249
vn 0.987268 0.148789 -0.056249
vn 0.987268 0.148789 -0.056249
vn 0.400711 0.899758 -0.172818
vn 0.400711 0.899758 -0.172818
vn 0.400711 0.899758 -0.172818
vn 0.145808 0.967598 -0.206140
vn 0.145808 0.967598 -0.206140
vn 0.145808 0.967598 -0.206140
vn -0.370242 0.915448 -0.157720
vn -0.370242 0.915448 -0.157720
vn -0.370242 0.915448 -0.157720
vn -0.555537 0.829010 -0.064193
vn -0.555537 0.829010 -0.064193
vn -0.555537 0.829010 -0.064193
vn -0.555537 0.829010 -0.064193
vn -0.627102 0.777546 0.046540
vn -0.627102 0.777546 0.046540
vn -0.627102 0.777546 0.046540
vn -0.627102 0.777546 0.046540
vn -0.375395 0.907213 0.189850
vn -0.375395 0.907213 0.189850
vn -0.375395 0.907213 0.189850
vn -0.375395 0.907213 0.189850
vn 0.024454 0.980294 0.196024
vn 0.024454 0.980294 0.196024
vn 0.024454 0.980294 0.196024
vn 0.024454 0.980294 0.196024
vn 0.289832 0.949813 0.117695
vn 0.289832 0.949813 0.117695
vn 0.289832 0.949813 0.117695
vn 0.464106 0.885765 0.005084
vn 0.464106 0.885765 0.005084
vn 0.464106 0.885765 0.005084
vn 0.440963 0.897085 -0.028127
vn 0.440963 0.897085 -0.028127
vn 0.440963 0.897085 -0.028127
vn 0.440963 0.897085 -0.028127
vn -0.064676 -0.996781 0.047378
vn -0.064676 -0.996781 0.047378
vn -0.064676 -0.996781 0.047378
vn 0.056160 -0.998232 -0.019479
vn 0.056160 -0.998232 -0.019479
vn 0.056160 -0.998232 -0.019479
vn 0.226527 -0.973964 -0.008971
vn 0.226527 -0.973964 -0.008971
vn 0.226527 -0.973964 -0.008971
vn 0.156109 -0.987698 0.009121
vn 0.156109 -0.987698 0.009121
vn 0.156109 -0.987698 0.009121
vn 0.155837 -0.985977 0.059707
vn 0.155837 -0.985977 0.059707
vn 0.155837 -0.985977 0.059707
vn 0.066460 0.997096 0.037188
vn 0.066460 0.997096 0.037188
vn 0.066460 0.997096 0.037188
vn 0.054212 0.995932 0.071982
vn 0.054212 0.995932 0.071982
vn 0.054212 0.995932 0.071982
vn -0.376016 0.923000 -0.081752
vn -0.376016 0.923000 -0.081752
vn -0.376016 0.923000 -0.081752
vn -0.160013 0.978620 0.129226
vn -0.160013 0.978620 0.129226
vn -0.160013 0.978620 0.129226
vn 0.855828 0.513487 -0.062364
vn 0.855828 0.513487 -0.062364
vn 0.855828 0.513487 -0.062364
g cloud1
f 1/1/1 7/8/2 6/7/3
f 1/1/4 8/9/5 7/8/6
f 1/1/7 2/2/8 9/10/9 8/9/10
f 2/2/11 10/11/12 9/10/13
f 2/2/14 3/3/15 11/12/16 10/11/17
f 3/3/18 12/13/19 11/12/20
f 3/3/21 13/14/22 12/13/23
f 3/3/24 4/4/25 14/15/26 13/14/27
f 4/4/28 5/5/29 15/16/30 14/15/31
f 5/5/32 1/6/33 6/17/34 15/16/35
f 6/7/36 7/8/37 16/18/38
f 7/8/39 8/9/40 17/19/41
f 8/9/42 9/10/43 18/20/44 17/19/45
f 9/10/46 10/11/47 19/21/48 18/20/49
f 10/11/50 11/12/51 20/22/52 19/21/53
f 11/12/54 12/13/55 20/22/56
f 12/13/57 13/14/58 21/23/59
f 13/14/60 14/15/61 22/24/62 21/23/63
f 14/15/64 15/16/65 23/25/66 22/24/67
f 15/16/68 6/17/69 16/26/70 23/25/71
f 16/18/72 7/8/73 24/27/74
f 7/8/75 17/19/76 24/27/77
f 17/19/78 18/20/79 24/27/80
f 18/20/81 19/21/82 25/28/83 24/27/84
f 19/21/85 20/22/86 26/29/87 25/28/88
f 20/22/89 12/13/90 27/30/91 26/29/92
f 12/13/93 21/23/94 28/31/95 27/30/96
f 21/23/97 22/24/98 28/31/99
f 22/24/100 23/25/101 28/31/102
f 23/25/103 16/26/104 24/32/105 28/31/106
f 2/2/107 1/1/108 29/33/109
f 3/3/110 2/2/111 29/34/112
f 4/4/113 3/3/114 29/35/115
f 5/5/116 4/4/117 29/36/118
f 1/6/119 5/5/120 29/37/121
f 25/28/122 26/29/123 28/39/124
f 26/29/125 27/30/126 28/40/127
f 24/27/128 25/28/129 30/41/130
f 25/28/131 28/38/132 30/41/133
f 28/38/134 24/27/135 30/41/136
