# This file uses centimeters as units for non-parametric coordinates.

g default
v 0.069875 -0.884825 -2.479446
v -0.919500 -0.731752 -0.958041
v -0.309216 -0.351148 2.467948
v 0.414376 -0.594150 1.720531
v 1.098882 -0.524044 -0.007318
v 0.923892 -0.311894 -2.765141
v 0.059306 -0.160698 -4.373744
v -0.793568 -0.320306 -4.229451
v -1.239209 -0.185633 0.000618
v -0.555159 -0.094062 2.653582
v 0.268709 0.104705 2.705746
v 0.577904 -0.197957 2.118266
v 1.170033 0.209606 -2.280699
v -0.797434 0.052496 -3.946098
v -1.056792 0.164797 2.262614
v 1.112559 0.380494 -0.100669
v -0.301858 0.441195 -1.972002
v -0.553207 0.878666 -0.605995
v -0.448180 0.835412 -0.049838
v -0.358155 0.761195 2.293612
v 0.289734 0.965415 0.234922
v -0.110046 -0.796828 0.003325
vt 0.100000 0.200000
vt 0.350000 0.200000
vt 0.600000 0.200000
vt 0.800000 0.200000
vt 0.900000 0.400000
vt 1.000000 0.200000
vt 0.000000 0.400000
vt 0.200000 0.400000
vt 0.300000 0.400000
vt 0.400000 0.400000
vt 0.600000 0.500000
vt 0.700000 0.600000
vt 0.800000 0.400000
vt 1.000000 0.400000
vt 0.000000 0.600000
vt 0.300000 0.600000
vt 0.500000 0.600000
vt 0.900000 0.600000
vt 1.000000 0.600000
vt 0.183333 0.800000
vt 0.400000 0.800000
vt 0.500000 0.800000
vt 0.600000 0.800000
vt 0.733333 0.906667
vt 1.000000 0.800000
vt 0.250000 0.000000
vt 0.450000 0.000000
vt 0.750000 0.000000
vt 0.850000 0.000000
vt 0.950000 0.000000
vt 0.350000 1.000000
vt 0.450000 1.000000
vt 0.550000 1.000000
vn 0.451303 -0.832702 -0.320832
vn 0.451303 -0.832702 -0.320832
vn 0.451303 -0.832702 -0.320832
vn -0.344074 -0.929872 -0.130195
vn -0.344074 -0.929872 -0.130195
vn -0.344074 -0.929872 -0.130195
vn 0.113522 -0.927829 -0.355312
vn 0.113522 -0.927829 -0.355312
vn 0.113522 -0.927829 -0.355312
vn -0.917325 -0.389123 -0.084252
vn -0.917325 -0.389123 -0.084252
vn -0.917325 -0.389123 -0.084252
vn -0.654277 -0.729971 0.197644
vn -0.654277 -0.729971 0.197644
vn -0.654277 -0.729971 0.197644
vn -0.637230 -0.746864 0.190085
vn -0.637230 -0.746864 0.190085
vn -0.637230 -0.746864 0.190085
vn 0.075809 -0.535040 0.841418
vn 0.075809 -0.535040 0.841418
vn 0.075809 -0.535040 0.841418
vn 0.355713 -0.731183 0.582099
vn 0.355713 -0.731183 0.582099
vn 0.355713 -0.731183 0.582099
vn 0.352449 -0.743381 0.568476
vn 0.352449 -0.743381 0.568476
vn 0.352449 -0.743381 0.568476
vn 0.758245 -0.590468 0.276429
vn 0.758245 -0.590468 0.276429
vn 0.758245 -0.590468 0.276429
vn 0.531485 -0.841328 -0.098444
vn 0.531485 -0.841328 -0.098444
vn 0.531485 -0.841328 -0.098444
vn 0.881483 0.022130 -0.471697
vn 0.881483 0.022130 -0.471697
vn 0.881483 0.022130 -0.471697
vn -0.240562 0.585762 -0.773959
vn -0.240562 0.585762 -0.773959
vn -0.240562 0.585762 -0.773959
vn -0.991760 0.070845 -0.106738
vn -0.991760 0.070845 -0.106738
vn -0.991760 0.070845 -0.106738
vn -0.553749 -0.814955 0.170910
vn -0.553749 -0.814955 0.170910
vn -0.553749 -0.814955 0.170910
vn 0.894886 0.329125 0.301423
vn 0.894886 0.329125 0.301423
vn 0.894886 0.329125 0.301423
vn 0.971550 0.009731 0.236633
vn 0.971550 0.009731 0.236633
vn 0.971550 0.009731 0.236633
vn 0.929569 -0.358344 -0.086549
vn 0.929569 -0.358344 -0.086549
vn 0.929569 -0.358344 -0.086549
vn 0.999551 -0.012295 0.027315
vn 0.999551 -0.012295 0.027315
vn 0.999551 -0.012295 0.027315
vn 0.104761 0.968267 -0.226901
vn 0.104761 0.968267 -0.226901
vn 0.104761 0.968267 -0.226901
vn 0.129282 0.966274 -0.222714
vn 0.129282 0.966274 -0.222714
vn 0.129282 0.966274 -0.222714
vn -0.578142 0.815789 -0.015493
vn -0.578142 0.815789 -0.015493
vn -0.578142 0.815789 -0.015493
vn -0.871285 0.397635 -0.287663
vn -0.871285 0.397635 -0.287663
vn -0.871285 0.397635 -0.287663
vn -0.790882 0.611188 -0.030906
vn -0.790882 0.611188 -0.030906
vn -0.790882 0.611188 -0.030906
vn -0.771052 0.606881 0.192808
vn -0.771052 0.606881 0.192808
vn -0.771052 0.606881 0.192808
vn -0.404843 0.432368 0.805705
vn -0.404842 0.432368 0.805705
vn -0.404842 0.432368 0.805705
vn -0.649740 0.758577 0.048984
vn -0.649740 0.758577 0.048984
vn -0.649740 0.758577 0.048984
vn -0.156567 0.413566 0.896911
vn -0.156567 0.413566 0.896911
vn -0.156567 0.413566 0.896911
vn 0.608465 0.747790 0.265670
vn 0.608465 0.747790 0.265670
vn 0.608465 0.747790 0.265670
vn 0.627744 0.733420 0.260828
vn 0.627744 0.733420 0.260828
vn 0.627744 0.733420 0.260828
vn 0.139902 0.987418 -0.073714
vn 0.139902 0.987418 -0.073714
vn 0.139902 0.987418 -0.073714
vn 0.458807 0.828954 -0.319893
vn 0.458807 0.828954 -0.319894
vn 0.458807 0.828954 -0.319893
vn -0.112031 -0.993335 0.027088
vn -0.112031 -0.993335 0.027088
vn -0.112031 -0.993336 0.027088
vn -0.257035 -0.954403 0.151814
vn -0.257035 -0.954403 0.151814
vn -0.257035 -0.954403 0.151814
vn -0.158354 -0.973786 0.163294
vn -0.158354 -0.973786 0.163294
vn -0.158354 -0.973786 0.163294
vn 0.220256 -0.974274 0.047726
vn 0.220257 -0.974274 0.047726
vn 0.220257 -0.974274 0.047726
vn 0.220250 -0.974136 0.050487
vn 0.220250 -0.974136 0.050487
vn 0.220250 -0.974136 0.050487
vn -0.215623 0.969547 0.116124
vn -0.215623 0.969547 0.116124
vn -0.215623 0.969547 0.116124
vn -0.187691 0.981481 0.038294
vn -0.187691 0.981481 0.038294
vn -0.187691 0.981481 0.038294
vn 0.173244 0.946766 -0.271329
vn 0.173244 0.946767 -0.271329
vn 0.173244 0.946767 -0.271329
g cloud3
f 1/1/1 7/8/2 6/7/3
f 2/2/4 8/9/5 1/1/6
f 1/1/7 8/9/8 7/8/9
f 2/2/10 9/10/11 8/9/12
f 2/2/13 3/3/14 9/10/15
f 3/3/16 10/11/17 9/10/18
f 3/3/19 11/12/20 10/11/21
f 4/4/22 12/13/23 3/3/24
f 3/3/25 12/13/26 11/12/27
f 4/4/28 5/5/29 12/13/30
f 5/5/31 1/6/32 6/14/33
f 6/7/34 7/8/35 13/15/36
f 7/8/37 8/9/38 14/16/39
f 8/9/40 9/10/41 14/16/42
f 9/10/43 10/11/44 15/17/45
f 11/12/46 12/13/47 16/18/48
f 12/13/49 5/5/50 16/18/51
f 6/14/52 13/19/53 5/5/54
f 5/5/55 13/19/56 16/18/57
f 13/15/58 7/8/59 17/20/60
f 7/8/61 14/16/62 17/20/63
f 14/16/64 9/10/65 17/20/66
f 17/20/67 9/10/68 18/21/69
f 15/17/70 19/22/71 9/10/72
f 9/10/73 19/22/74 18/21/75
f 10/11/76 20/23/77 15/17/78
f 15/17/79 20/23/80 19/22/81
f 10/11/82 11/12/83 20/23/84
f 20/23/85 11/12/86 21/24/87
f 11/12/88 16/18/89 21/24/90
f 13/19/91 17/25/92 16/18/93
f 16/18/94 17/25/95 21/24/96
f 2/2/97 1/1/98 22/26/99
f 3/3/100 2/2/101 22/27/102
f 4/4/103 3/3/104 22/28/105
f 5/5/106 4/4/107 22/29/108
f 1/6/109 5/5/110 22/30/111
f 18/21/112 19/22/113 21/32/114
f 19/22/115 20/23/116 21/33/117
f 18/21/118 21/31/119 17/20/120
