# This file uses centimeters as units for non-parametric coordinates.

g default
v -0.259647 -1.000000 0.247775
v 0.217783 -1.000000 0.221144
v -0.409448 -0.542832 0.409448
v 0.409448 -0.542832 0.409448
v -0.500000 -0.333333 0.500000
v 0.500000 -0.333333 0.500000
v -0.500000 0.000000 0.500000
v 0.500000 0.000000 0.500000
v -0.500000 0.000000 -0.500000
v 0.500000 0.000000 -0.500000
v -0.500000 -0.333333 -0.500000
v 0.500000 -0.333333 -0.500000
v -0.409448 -0.542832 -0.409448
v 0.409448 -0.542832 -0.409448
v -0.241639 -1.000000 -0.199650
v 0.284502 -1.000000 -0.215583
v -0.443120 0.000000 0.443120
v 0.443120 0.000000 0.443120
v 0.443120 0.000000 -0.443120
v -0.443120 0.000000 -0.443120
vt 0.375000 0.000000
vt 0.625000 0.000000
vt 0.375000 0.083333
vt 0.625000 0.083333
vt 0.375000 0.166667
vt 0.625000 0.166667
vt 0.375000 0.250000
vt 0.625000 0.250000
vt 0.375000 0.500000
vt 0.625000 0.500000
vt 0.375000 0.583333
vt 0.625000 0.583333
vt 0.375000 0.666667
vt 0.625000 0.666667
vt 0.375000 0.750000
vt 0.625000 0.750000
vt 0.375000 1.000000
vt 0.625000 1.000000
vt 0.875000 0.000000
vt 0.875000 0.083333
vt 0.875000 0.166667
vt 0.875000 0.250000
vt 0.125000 0.000000
vt 0.125000 0.083333
vt 0.125000 0.166667
vt 0.125000 0.250000
vt 0.375000 0.250000
vt 0.625000 0.250000
vt 0.625000 0.500000
vt 0.375000 0.500000
vn 0.019177 -0.358174 0.933458
vn 0.019177 -0.358174 0.933458
vn 0.019177 -0.358174 0.933458
vn 0.019177 -0.358174 0.933458
vn 0.000000 -0.396758 0.917924
vn 0.000000 -0.396758 0.917924
vn 0.000000 -0.396757 0.917923
vn 0.000000 -0.396757 0.917923
vn 0.000000 0.000000 1.000000
vn 0.000000 0.000000 1.000000
vn 0.000000 0.000000 1.000000
vn 0.000000 0.000000 1.000000
vn 0.000000 1.000000 0.000000
vn 0.000000 1.000000 0.000000
vn 0.000000 1.000000 0.000000
vn 0.000000 1.000000 0.000000
vn 0.000000 0.000000 -1.000000
vn 0.000000 0.000000 -1.000000
vn 0.000000 0.000000 -1.000000
vn 0.000000 0.000000 -1.000000
vn 0.000000 -0.396758 -0.917924
vn 0.000000 -0.396758 -0.917924
vn 0.000000 -0.396757 -0.917923
vn 0.000000 -0.396757 -0.917923
vn -0.010834 -0.404275 -0.914573
vn -0.010834 -0.404275 -0.914573
vn -0.010834 -0.404275 -0.914574
vn -0.010834 -0.404275 -0.914573
vn 0.000000 -1.000000 -0.000000
vn 0.000000 -1.000000 -0.000000
vn 0.000000 -1.000000 -0.000000
vn 0.000000 -1.000000 -0.000000
vn 0.943856 -0.326528 0.050153
vn 0.943856 -0.326528 0.050153
vn 0.943856 -0.326528 0.050153
vn 0.943856 -0.326528 0.050153
vn 0.917924 -0.396757 0.000000
vn 0.917924 -0.396757 0.000000
vn 0.917924 -0.396757 0.000000
vn 0.917924 -0.396757 0.000000
vn 1.000000 0.000000 0.000000
vn 1.000000 0.000000 0.000000
vn 1.000000 0.000000 0.000000
vn 1.000000 0.000000 0.000000
vn -0.944327 -0.328735 -0.013429
vn -0.944327 -0.328734 -0.013429
vn -0.944327 -0.328734 -0.013429
vn -0.944327 -0.328734 -0.013429
vn -0.917924 -0.396757 0.000000
vn -0.917924 -0.396757 0.000000
vn -0.917924 -0.396757 0.000000
vn -0.917924 -0.396757 0.000000
vn -1.000000 0.000000 0.000000
vn -1.000000 0.000000 0.000000
vn -1.000000 0.000000 0.000000
vn -1.000000 0.000000 0.000000
vn 0.000000 1.000000 0.000000
vn 0.000000 1.000000 0.000000
vn 0.000000 1.000000 0.000000
vn 0.000000 1.000000 0.000000
vn 0.000000 1.000000 0.000000
vn 0.000000 1.000000 0.000000
vn 0.000000 1.000000 0.000000
vn 0.000000 1.000000 0.000000
vn 0.000000 1.000000 0.000000
vn 0.000000 1.000000 0.000000
vn 0.000000 1.000000 0.000000
vn 0.000000 1.000000 0.000000
vn 0.000000 1.000000 0.000000
vn 0.000000 1.000000 0.000000
vn 0.000000 1.000000 0.000000
vn 0.000000 1.000000 0.000000
g ground
f 1/1/1 2/2/2 4/4/3 3/3/4
f 3/3/5 4/4/6 6/6/7 5/5/8
f 5/5/9 6/6/10 8/8/11 7/7/12
f 17/27/13 18/28/14 19/29/15 20/30/16
f 9/9/17 10/10/18 12/12/19 11/11/20
f 11/11/21 12/12/22 14/14/23 13/13/24
f 13/13/25 14/14/26 16/16/27 15/15/28
f 15/15/29 16/16/30 2/18/31 1/17/32
f 2/2/33 16/19/34 14/20/35 4/4/36
f 4/4/37 14/20/38 12/21/39 6/6/40
f 6/6/41 12/21/42 10/22/43 8/8/44
f 15/23/45 1/1/46 3/3/47 13/24/48
f 13/24/49 3/3/50 5/5/51 11/25/52
f 11/25/53 5/5/54 7/7/55 9/26/56
f 7/7/57 8/8/58 18/28/59 17/27/60
f 8/8/61 10/10/62 19/29/63 18/28/64
f 10/10/65 9/9/66 20/30/67 19/29/68
f 9/9/69 7/7/70 17/27/71 20/30/72
