# This file uses centimeters as units for non-parametric coordinates.

g default
v -0.409448 -0.542832 0.409448
v 0.409448 -0.542832 0.409448
v -0.500000 -0.333333 0.500000
v 0.500000 -0.333333 0.500000
v -0.500000 0.000000 0.500000
v 0.500000 0.000000 0.500000
v -0.500000 0.000000 -0.500000
v 0.500000 0.000000 -0.500000
v -0.500000 -0.333333 -0.500000
v 0.500000 -0.333333 -0.500000
v -0.409448 -0.542832 -0.409448
v 0.409448 -0.542832 -0.409448
v 0.207040 -0.826806 0.207040
v -0.207040 -0.826806 0.207040
v 0.207040 -0.826806 -0.207040
v -0.207040 -0.826806 -0.207040
v 0.425000 0.000000 0.425000
v -0.425000 0.000000 0.425000
v 0.425000 0.000000 -0.425000
v -0.425000 0.000000 -0.425000
vt 0.625000 0.083333
vt 0.375000 0.083333
vt 0.625000 0.166667
vt 0.375000 0.166667
vt 0.625393 0.249603
vt 0.374186 0.250191
vt 0.631041 0.506911
vt 0.369198 0.507003
vt 0.625000 0.583333
vt 0.375000 0.583333
vt 0.625000 0.666667
vt 0.375000 0.666667
vt 0.875000 0.083333
vt 0.875000 0.166667
vt 0.875086 0.249863
vt 0.125000 0.083333
vt 0.125000 0.166667
vt 0.124809 0.250010
vt 0.000000 0.000000
vt 1.000000 0.000000
vt 1.000000 1.000000
vt 0.000000 1.000000
vt 0.000000 0.000000
vt 1.000000 0.000000
vt 0.881459 0.999426
vt 0.196913 0.999589
vt 0.000000 0.000000
vt 1.000000 0.000000
vt 1.000000 1.000000
vt 0.196913 0.999589
vt 0.000000 0.000000
vt 1.000000 0.000000
vt 0.803087 0.999589
vt 0.000000 1.000000
vt 0.000000 0.000000
vt 1.000000 0.000000
vt 0.999709 1.376433
vt 0.000236 1.376329
vt 0.374186 0.250191
vt 0.625393 0.249603
vt 0.631041 0.506911
vt 0.369198 0.507003
vn 0.000000 -0.396758 0.917923
vn 0.000000 -0.396758 0.917923
vn 0.000000 -0.396757 0.917924
vn 0.000000 -0.396757 0.917924
vn 0.000000 0.000000 1.000000
vn 0.000000 0.000000 1.000000
vn 0.000000 0.000000 1.000000
vn 0.000000 0.000000 1.000000
vn 0.000000 1.000000 0.000000
vn 0.000000 1.000000 0.000000
vn 0.000000 1.000000 0.000000
vn 0.000000 1.000000 0.000000
vn 0.000000 0.000000 -1.000000
vn 0.000000 0.000000 -1.000000
vn 0.000000 0.000000 -1.000000
vn 0.000000 0.000000 -1.000000
vn 0.000000 -0.396758 -0.917923
vn 0.000000 -0.396758 -0.917923
vn 0.000000 -0.396757 -0.917924
vn 0.000000 -0.396757 -0.917924
vn 0.917924 -0.396757 0.000000
vn 0.917924 -0.396757 0.000000
vn 0.917924 -0.396757 0.000000
vn 0.917924 -0.396757 0.000000
vn 1.000000 0.000000 0.000000
vn 1.000000 0.000000 0.000000
vn 1.000000 0.000000 0.000000
vn 1.000000 0.000000 0.000000
vn -0.917924 -0.396757 0.000000
vn -0.917924 -0.396757 0.000000
vn -0.917924 -0.396757 0.000000
vn -0.917924 -0.396757 0.000000
vn -1.000000 0.000000 0.000000
vn -1.000000 0.000000 0.000000
vn -1.000000 0.000000 0.000000
vn -1.000000 0.000000 0.000000
vn 0.000000 -0.580420 0.814317
vn 0.000000 -0.580420 0.814317
vn 0.000000 -0.580420 0.814317
vn 0.000000 -0.580420 0.814317
vn 0.000000 -0.580420 -0.814317
vn 0.000000 -0.580420 -0.814317
vn 0.000000 -0.580420 -0.814317
vn 0.000000 -0.580420 -0.814317
vn 0.814317 -0.580420 0.000000
vn 0.814317 -0.580420 0.000000
vn 0.814317 -0.580420 0.000000
vn 0.814317 -0.580420 0.000000
vn -0.814317 -0.580420 0.000000
vn -0.814317 -0.580420 0.000000
vn -0.814317 -0.580420 0.000000
vn -0.814317 -0.580420 0.000000
vn 0.000000 -1.000000 0.000000
vn 0.000000 -1.000000 0.000000
vn 0.000000 -1.000000 0.000000
vn 0.000000 -1.000000 0.000000
vn 0.000000 1.000000 0.000000
vn 0.000000 1.000000 0.000000
vn 0.000000 1.000000 0.000000
vn 0.000000 1.000000 0.000000
g initialShadingGroup ground
f 1/2/1 2/1/2 4/3/3 3/4/4
f 3/4/5 4/3/6 6/5/7 5/6/8
f 18/39/9 17/40/10 19/41/11 20/42/12
f 7/8/13 8/7/14 10/9/15 9/10/16
f 9/10/17 10/9/18 12/11/19 11/12/20
f 2/1/21 12/13/22 10/14/23 4/3/24
f 4/3/25 10/14/26 8/15/27 6/5/28
f 11/16/29 1/2/30 3/4/31 9/17/32
f 9/17/33 3/4/34 5/6/35 7/18/36
f 2/19/37 1/20/38 14/21/39 13/22/40
f 11/23/41 12/24/42 15/25/43 16/26/44
f 12/27/45 2/28/46 13/29/47 15/30/48
f 1/31/49 11/32/50 16/33/51 14/34/52
f 13/35/53 14/36/54 16/37/55 15/38/56
f 5/6/57 6/5/58 17/40/10 18/39/9
f 6/5/58 8/7/59 19/41/11 17/40/10
f 8/7/59 7/8/60 20/42/12 19/41/11
f 7/8/60 5/6/57 18/39/9 20/42/12
