# This file uses centimeters as units for non-parametric coordinates.

g default
v -0.500000 -0.000000 0.500000
v 0.500000 0.000000 0.500000
v -0.500000 0.000000 -0.500000
v 0.500000 0.000000 -0.500000
v -0.295543 0.254853 0.375295
v 0.304523 0.250941 0.347956
v 0.331264 0.155415 -0.345624
v -0.272669 0.167144 -0.345624
v -0.138759 0.479514 0.248833
v 0.099782 0.375713 0.218881
v 0.143502 0.329829 -0.088112
v -0.168234 0.366858 -0.101103
v -0.409448 -0.542832 0.409448
v 0.409448 -0.542832 0.409448
v -0.500000 -0.333333 0.500000
v 0.500000 -0.333333 0.500000
v -0.500000 -0.333333 -0.500000
v 0.500000 -0.333333 -0.500000
v -0.409448 -0.542832 -0.409448
v 0.409448 -0.542832 -0.409448
v 0.207040 -0.826806 0.207040
v -0.207040 -0.826806 0.207040
v 0.207040 -0.826806 -0.207040
v -0.207040 -0.826806 -0.207040
vt 0.375000 0.250000
vt 0.625000 0.250000
vt 0.625000 0.500000
vt 0.375000 0.500000
vt 0.380275 0.259597
vt 0.625831 0.259148
vt 0.625000 0.250000
vt 0.375000 0.250000
vt 0.616682 0.507851
vt 0.625000 0.500000
vt 0.380329 0.504683
vt 0.375000 0.500000
vt 0.375000 0.083333
vt 0.625000 0.083333
vt 0.625000 0.166667
vt 0.375000 0.166667
vt 0.624970 0.249741
vt 0.374666 0.249921
vt 0.370716 0.507097
vt 0.622301 0.507093
vt 0.625000 0.583333
vt 0.375000 0.583333
vt 0.625000 0.666667
vt 0.375000 0.666667
vt 0.875000 0.083333
vt 0.875000 0.166667
vt 0.875055 0.249681
vt 0.125000 0.083333
vt 0.125000 0.166667
vt 0.124721 0.249940
vt 0.000000 0.000000
vt 1.000000 0.000000
vt 1.000000 1.000000
vt 0.000000 1.000000
vt 0.000000 0.000000
vt 1.000000 0.000000
vt 0.881459 0.999426
vt 0.196913 0.999589
vt 0.000000 0.000000
vt 1.000000 0.000000
vt 1.000000 1.000000
vt 0.196913 0.999589
vt 0.000000 0.000000
vt 1.000000 0.000000
vt 0.803087 0.999589
vt 0.000000 1.000000
vn 0.013215 0.996922 -0.077283
vn 0.013215 0.996922 -0.077283
vn 0.013215 0.996922 -0.077283
vn 0.014181 0.643777 0.765082
vn 0.014181 0.643777 0.765081
vn 0.014181 0.643777 0.765081
vn 0.014181 0.643777 0.765082
vn 0.572932 0.818811 -0.036021
vn 0.572932 0.818811 -0.036021
vn 0.572932 0.818811 -0.036021
vn 0.572932 0.818811 -0.036021
vn 0.006134 0.866280 -0.499522
vn 0.006134 0.866280 -0.499522
vn 0.006134 0.866280 -0.499522
vn 0.006134 0.866280 -0.499522
vn -0.533053 0.844682 -0.048650
vn -0.533053 0.844682 -0.048650
vn -0.533053 0.844682 -0.048650
vn -0.533053 0.844682 -0.048650
vn 0.035984 0.455526 0.889495
vn 0.035984 0.455526 0.889495
vn 0.035984 0.455526 0.889495
vn 0.035984 0.455526 0.889495
vn 0.835792 0.548986 -0.008113
vn 0.835792 0.548986 -0.008113
vn 0.835792 0.548986 -0.008113
vn 0.835792 0.548987 -0.008113
vn 0.004994 0.600630 -0.799512
vn 0.004994 0.600630 -0.799512
vn 0.004994 0.600630 -0.799512
vn 0.004994 0.600630 -0.799512
vn -0.887873 0.458275 -0.040804
vn -0.887873 0.458275 -0.040804
vn -0.887873 0.458275 -0.040804
vn -0.887873 0.458276 -0.040804
vn 0.000000 -0.396758 0.917923
vn 0.000000 -0.396758 0.917923
vn 0.000000 -0.396757 0.917924
vn 0.000000 -0.396757 0.917924
vn 0.000000 0.000000 1.000000
vn 0.000000 0.000000 1.000000
vn 0.000000 0.000000 1.000000
vn 0.000000 0.000000 1.000000
vn 0.000000 0.000000 -1.000000
vn 0.000000 0.000000 -1.000000
vn 0.000000 0.000000 -1.000000
vn 0.000000 0.000000 -1.000000
vn 0.000000 -0.396758 -0.917923
vn 0.000000 -0.396758 -0.917923
vn 0.000000 -0.396757 -0.917924
vn 0.000000 -0.396757 -0.917924
vn 0.917924 -0.396757 0.000000
vn 0.917924 -0.396757 0.000000
vn 0.917924 -0.396757 0.000000
vn 0.917924 -0.396757 0.000000
vn 1.000000 0.000000 0.000000
vn 1.000000 0.000000 0.000000
vn 1.000000 0.000000 0.000000
vn 1.000000 0.000000 0.000000
vn -0.917924 -0.396757 0.000000
vn -0.917924 -0.396757 0.000000
vn -0.917924 -0.396757 0.000000
vn -0.917924 -0.396757 0.000000
vn -1.000000 0.000000 0.000000
vn -1.000000 0.000000 0.000000
vn -1.000000 0.000000 0.000000
vn -1.000000 0.000000 0.000000
vn 0.000000 -0.580420 0.814317
vn 0.000000 -0.580420 0.814317
vn 0.000000 -0.580420 0.814317
vn 0.000000 -0.580420 0.814317
vn 0.000000 -0.580420 -0.814317
vn 0.000000 -0.580420 -0.814317
vn 0.000000 -0.580420 -0.814317
vn 0.000000 -0.580420 -0.814317
vn 0.814317 -0.580420 0.000000
vn 0.814317 -0.580420 0.000000
vn 0.814317 -0.580420 0.000000
vn 0.814317 -0.580420 0.000000
vn -0.814317 -0.580420 0.000000
vn -0.814317 -0.580420 0.000000
vn -0.814317 -0.580420 0.000000
vn -0.814317 -0.580420 0.000000
vn 0.013215 0.996922 -0.077283
g initialShadingGroup mountain3
f 9/1/1 10/2/2 12/4/3
f 1/5/4 2/6/5 6/7/6 5/8/7
f 2/6/8 4/9/9 7/10/10 6/7/11
f 4/9/12 3/11/13 8/12/14 7/10/15
f 3/11/16 1/5/17 5/8/18 8/12/19
f 5/8/20 6/7/21 10/2/22 9/1/23
f 6/7/24 7/10/25 11/3/26 10/2/27
f 7/10/28 8/12/29 12/4/30 11/3/31
f 8/12/32 5/8/33 9/1/34 12/4/35
f 13/13/36 14/14/37 16/15/38 15/16/39
f 15/16/40 16/15/41 2/17/42 1/18/43
f 3/19/44 4/20/45 18/21/46 17/22/47
f 17/22/48 18/21/49 20/23/50 19/24/51
f 14/14/52 20/25/53 18/26/54 16/15/55
f 16/15/56 18/26/57 4/27/58 2/17/59
f 19/28/60 13/13/61 15/16/62 17/29/63
f 17/29/64 15/16/65 1/18/66 3/30/67
f 14/31/68 13/32/69 22/33/70 21/34/71
f 19/35/72 20/36/73 23/37/74 24/38/75
f 20/39/76 14/40/77 21/41/78 23/42/79
f 13/43/80 19/44/81 24/45/82 22/46/83
f 12/4/3 10/2/2 11/3/84
