# This file uses centimeters as units for non-parametric coordinates.

g default
v -0.409448 -0.542832 0.409448
v 0.409448 -0.542832 0.409448
v -0.500000 -0.333333 0.500000
v 0.500000 -0.333333 0.500000
v -0.500000 -0.000000 0.500000
v 0.500000 0.000000 0.500000
v -0.500000 0.000000 -0.500000
v 0.500000 0.000000 -0.500000
v -0.500000 -0.333333 -0.500000
v 0.500000 -0.333333 -0.500000
v -0.409448 -0.542832 -0.409448
v 0.409448 -0.542832 -0.409448
v 0.207040 -0.826806 0.207040
v -0.207040 -0.826806 0.207040
v 0.207040 -0.826806 -0.207040
v -0.207040 -0.826806 -0.207040
v -0.345624 0.767895 -0.345624
v 0.373744 0.437577 -0.345624
v -0.345624 0.636614 0.345624
v 0.393318 0.416778 0.370817
v -0.151402 1.010096 -0.228867
v 0.127396 0.778543 -0.243886
v -0.247776 0.707880 0.266068
v 0.261111 0.634742 0.251049
v -0.199589 0.818693 0.018601
vt 0.625000 0.083333
vt 0.375000 0.083333
vt 0.625000 0.166667
vt 0.375000 0.166667
vt 0.625060 0.249740
vt 0.374499 0.250035
vt 0.624317 0.507035
vt 0.369198 0.507003
vt 0.625000 0.583333
vt 0.375000 0.583333
vt 0.625000 0.666667
vt 0.375000 0.666667
vt 0.875000 0.083333
vt 0.875000 0.166667
vt 0.875114 0.249748
vt 0.125000 0.083333
vt 0.125000 0.166667
vt 0.124809 0.250010
vt 0.000000 0.000000
vt 1.000000 0.000000
vt 1.000000 1.000000
vt 0.000000 1.000000
vt 0.000000 0.000000
vt 1.000000 0.000000
vt 0.881459 0.999426
vt 0.196913 0.999589
vt 0.000000 0.000000
vt 1.000000 0.000000
vt 1.000000 1.000000
vt 0.196913 0.999589
vt 0.000000 0.000000
vt 1.000000 0.000000
vt 0.803087 0.999589
vt 0.000000 1.000000
vt -0.058328 -0.114684
vt 1.000000 0.000000
vt 1.011276 1.195060
vt -0.027574 1.167996
vt 0.000000 0.000000
vt 1.000000 0.000000
vt 0.999962 1.155071
vt 0.000050 1.155087
vt 0.000000 0.000000
vt 1.000000 0.000000
vt 0.999962 1.155071
vt 0.000050 1.155087
vt 0.999981 0.577536
vn 0.000000 -0.396758 0.917923
vn 0.000000 -0.396758 0.917923
vn 0.000000 -0.396757 0.917924
vn 0.000000 -0.396757 0.917924
vn 0.000000 0.000000 1.000000
vn 0.000000 0.000000 1.000000
vn 0.000000 0.000000 1.000000
vn 0.000000 0.000000 1.000000
vn 0.000000 0.000000 -1.000000
vn 0.000000 0.000000 -1.000000
vn 0.000000 0.000000 -1.000000
vn 0.000000 0.000000 -1.000000
vn 0.000000 -0.396758 -0.917923
vn 0.000000 -0.396758 -0.917923
vn 0.000000 -0.396757 -0.917924
vn 0.000000 -0.396757 -0.917924
vn 0.917924 -0.396757 0.000000
vn 0.917924 -0.396757 0.000000
vn 0.917924 -0.396757 0.000000
vn 0.917924 -0.396757 0.000000
vn 1.000000 0.000000 0.000000
vn 1.000000 0.000000 0.000000
vn 1.000000 0.000000 0.000000
vn 1.000000 0.000000 0.000000
vn -0.917924 -0.396757 0.000000
vn -0.917924 -0.396757 0.000000
vn -0.917924 -0.396757 0.000000
vn -0.917924 -0.396757 0.000000
vn -1.000000 0.000000 0.000000
vn -1.000000 0.000000 0.000000
vn -1.000000 0.000000 0.000000
vn -1.000000 0.000000 0.000000
vn 0.000000 -0.580420 0.814317
vn 0.000000 -0.580420 0.814317
vn 0.000000 -0.580420 0.814317
vn 0.000000 -0.580420 0.814317
vn 0.000000 -0.580420 -0.814317
vn 0.000000 -0.580420 -0.814317
vn 0.000000 -0.580420 -0.814317
vn 0.000000 -0.580420 -0.814317
vn 0.814317 -0.580420 0.000000
vn 0.814317 -0.580420 0.000000
vn 0.814317 -0.580420 0.000000
vn 0.814317 -0.580420 0.000000
vn -0.814317 -0.580420 0.000000
vn -0.814317 -0.580420 0.000000
vn -0.814317 -0.580420 0.000000
vn -0.814317 -0.580420 0.000000
vn 0.264617 0.876055 0.403119
vn 0.275189 0.940583 0.198935
vn 0.858676 0.510095 -0.049784
vn 0.047414 0.246799 -0.967906
vn 0.047414 0.246799 -0.967906
vn 0.047414 0.246799 -0.967906
vn 0.047414 0.246799 -0.967906
vn -0.976544 0.214673 0.016664
vn -0.976544 0.214673 0.016664
vn -0.976544 0.214673 0.016664
vn -0.976544 0.214673 0.016664
vn 0.025998 0.268068 0.963049
vn 0.025998 0.268068 0.963049
vn 0.025998 0.268068 0.963049
vn 0.025998 0.268068 0.963049
vn 0.964695 0.263253 -0.007811
vn 0.961069 0.276308 -0.000514
vn 0.961069 0.276308 -0.000514
vn 0.961069 0.276308 -0.000514
vn 0.158609 0.323950 -0.932684
vn 0.158609 0.323950 -0.932684
vn 0.158609 0.323950 -0.932684
vn -0.750334 0.635407 0.182367
vn -0.810625 0.528925 0.251249
vn -0.750334 0.635407 0.182367
vn 0.086901 0.540891 0.836592
vn 0.086901 0.540891 0.836592
vn 0.086901 0.540891 0.836592
vn 0.086901 0.540891 0.836592
vn 0.264617 0.876055 0.403119
vn 0.264617 0.876055 0.403119
vn 0.539426 0.611975 0.578366
vn 0.158609 0.323949 -0.932684
vn 0.158609 0.323950 -0.932684
vn 0.158609 0.323950 -0.932684
vn -0.750334 0.635407 0.182367
vn -0.750334 0.635407 0.182367
vn -0.750334 0.635407 0.182367
vn -0.594168 0.785706 0.172133
vn 0.264617 0.876055 0.403119
vn 0.858676 0.510095 -0.049784
vn 0.858676 0.510095 -0.049784
vn 0.858676 0.510095 -0.049784
vn 0.140961 0.893035 0.427340
vn 0.264617 0.876055 0.403119
vn 0.858676 0.510095 -0.049784
vn 0.858676 0.510095 -0.049784
vn 0.858676 0.510095 -0.049784
g initialShadingGroup mountain1
f 1/2/1 2/1/2 4/3/3 3/4/4
f 3/4/5 4/3/6 6/5/7 5/6/8
f 7/8/9 8/7/10 10/9/11 9/10/12
f 9/10/13 10/9/14 12/11/15 11/12/16
f 2/1/17 12/13/18 10/14/19 4/3/20
f 4/3/21 10/14/22 8/15/23 6/5/24
f 11/16/25 1/2/26 3/4/27 9/17/28
f 9/17/29 3/4/30 5/6/31 7/18/32
f 2/19/33 1/20/34 14/21/35 13/22/36
f 11/23/37 12/24/38 15/25/39 16/26/40
f 12/27/41 2/28/42 13/29/43 15/30/44
f 1/31/45 11/32/46 16/33/47 14/34/48
f 22/43/49 25/47/50 24/46/51
f 7/36/52 17/40/53 18/39/54 8/35/55
f 5/37/56 19/41/57 17/40/58 7/36/59
f 6/38/60 20/42/61 19/41/62 5/37/63
f 8/35/64 18/39/65 20/42/66 6/38/67
f 22/43/68 17/40/69 21/44/70
f 17/40/71 25/47/72 21/44/73
f 19/41/74 20/42/75 24/46/76 23/45/77
f 22/43/78 21/44/79 25/47/80
f 18/39/81 17/40/82 22/43/83
f 17/40/84 19/41/85 23/45/86 25/47/87
f 22/43/88 24/46/89 18/39/90
f 24/46/91 25/47/92 23/45/93
f 18/39/94 24/46/95 20/42/96
