# This file uses centimeters as units for non-parametric coordinates.

g default
v -0.416725 0.000220 0.195562
v -0.164660 0.000000 0.333861
v 0.182039 0.000000 0.243016
v 0.367594 0.000000 0.179540
v -0.353190 0.166190 0.122869
v -0.164660 0.183979 0.266737
v 0.093532 0.200000 0.183550
v 0.279086 0.200000 0.129916
v -0.349621 0.182211 -0.150784
v -0.149642 0.200000 -0.232840
v 0.071046 0.210609 -0.180988
v 0.316284 0.199899 -0.104969
v -0.428922 -0.000220 -0.253936
v -0.164660 0.000000 -0.333861
v 0.164660 0.000000 -0.300000
v 0.390992 0.000000 -0.199074
vt 0.375000 0.000000
vt 0.458333 0.000000
vt 0.541667 0.000000
vt 0.625000 0.000000
vt 0.375000 0.250000
vt 0.458333 0.250000
vt 0.541667 0.250000
vt 0.625000 0.250000
vt 0.375000 0.500000
vt 0.458333 0.500000
vt 0.541667 0.500000
vt 0.625000 0.500000
vt 0.375000 0.750000
vt 0.458333 0.750000
vt 0.541667 0.750000
vt 0.625000 0.750000
vt 0.375000 1.000000
vt 0.458333 1.000000
vt 0.541667 1.000000
vt 0.625000 1.000000
vt 0.875000 0.000000
vt 0.875000 0.250000
vt 0.125000 0.000000
vt 0.125000 0.250000
vn -0.506024 0.397666 0.765377
vn -0.074673 0.402995 0.912151
vn -0.082974 0.403671 0.911134
vn -0.506024 0.397666 0.765377
vn 0.264649 0.360232 0.894535
vn 0.259247 0.358199 0.896930
vn 0.280062 0.365976 0.887484
vn 0.280062 0.365976 0.887483
vn -0.097259 0.994500 0.038872
vn -0.069343 0.997013 0.034000
vn -0.070118 0.996955 0.034136
vn -0.097259 0.994500 0.038872
vn -0.029016 0.999212 0.027093
vn -0.031192 0.999136 0.027461
vn 0.023909 0.999550 0.018109
vn 0.023909 0.999550 0.018109
vn -0.301608 0.505855 -0.808173
vn -0.058721 0.506800 -0.860062
vn -0.073370 0.507624 -0.858449
vn -0.301608 0.505855 -0.808173
vn 0.200803 0.509142 -0.836931
vn 0.228411 0.516397 -0.825326
vn 0.307487 0.534710 -0.787107
vn 0.307487 0.534710 -0.787107
vn -0.000045 -1.000000 0.000394
vn -0.000017 -1.000000 0.000149
vn -0.000016 -1.000000 0.000143
vn -0.000045 -1.000000 0.000394
vn 0.000000 -1.000000 -0.000000
vn 0.000000 -1.000000 -0.000000
vn 0.000000 -1.000000 0.000000
vn 0.000000 -1.000000 0.000000
vn 0.925497 0.367573 0.091351
vn 0.925497 0.367573 0.091351
vn 0.925497 0.367573 0.091351
vn 0.925497 0.367573 0.091351
vn -0.925677 0.377829 0.019187
vn -0.925677 0.377829 0.019187
vn -0.925677 0.377829 0.019187
vn -0.925677 0.377829 0.019187
g stone
f 1/1/1 2/2/2 6/6/3 5/5/4
f 2/2/2 3/3/5 7/7/6 6/6/3
f 3/3/5 4/4/7 8/8/8 7/7/6
f 5/5/9 6/6/10 10/10/11 9/9/12
f 6/6/10 7/7/13 11/11/14 10/10/11
f 7/7/13 8/8/15 12/12/16 11/11/14
f 9/9/17 10/10/18 14/14/19 13/13/20
f 10/10/18 11/11/21 15/15/22 14/14/19
f 11/11/21 12/12/23 16/16/24 15/15/22
f 13/13/25 14/14/26 2/18/27 1/17/28
f 14/14/26 15/15/29 3/19/30 2/18/27
f 15/15/29 16/16/31 4/20/32 3/19/30
f 4/4/33 16/21/34 12/22/35 8/8/36
f 13/23/37 1/1/38 5/5/39 9/24/40
