# This file uses centimeters as units for non-parametric coordinates.

g default
v 0.082504 0.277353 0.246390
v 0.122422 0.285727 0.281540
v 0.133589 0.080697 0.299188
v 0.232014 0.003270 0.395139
v 0.164738 0.297566 0.182689
v 0.198216 0.299109 0.217695
v 0.181078 0.081111 0.236328
v 0.238722 0.001463 0.344679
v 0.015486 0.245789 0.176298
v 0.091445 0.253348 0.154427
v 0.123607 0.000000 -0.380423
v -0.323607 0.000000 -0.235114
v -0.323607 0.000000 0.235114
v 0.131082 0.000000 0.418791
v 0.434841 0.000000 0.000000
v 0.143776 0.082680 -0.298999
v -0.236143 0.066422 -0.213482
v -0.269080 0.066422 0.162986
v 0.090483 0.082680 0.310139
v 0.338412 0.082680 0.024930
v 0.148878 0.288785 -0.331867
v -0.275290 0.218342 -0.238211
v -0.302040 0.212041 0.192050
v 0.100042 0.278590 0.294629
v 0.369036 0.326021 0.040512
v 0.134904 0.286322 -0.286818
v -0.234383 0.225555 -0.206028
v -0.256224 0.220120 0.167258
v 0.094012 0.277527 0.247490
v 0.326053 0.318442 0.036536
v 0.000000 0.000000 0.000000
v 0.020717 0.180769 -0.005862
v 0.318241 0.432232 -0.012825
v 0.151067 0.355967 -0.295342
v 0.133785 0.352920 -0.255884
v 0.277994 0.425135 -0.012177
vt 0.562500 0.000000
vt 0.750000 0.000000
vt 0.875000 0.000000
vt 1.000000 0.000000
vt 0.562500 0.071429
vt 0.750000 0.071429
vt 0.875000 0.071429
vt 1.000000 0.071429
vt 0.000000 0.000000
vt 1.000000 0.000000
vt 0.000000 1.000000
vt 0.500000 1.000000
vt 0.375000 0.312500
vt 0.425000 0.312500
vt 0.425000 0.437813
vt 0.375000 0.437813
vt 0.475000 0.312500
vt 0.475000 0.437813
vt 0.525000 0.312500
vt 0.525000 0.437813
vt 0.575000 0.312500
vt 0.575000 0.437813
vt 0.625000 0.312500
vt 0.625000 0.437813
vt 0.425000 0.563127
vt 0.375000 0.563127
vt 0.475000 0.563127
vt 0.525000 0.563127
vt 0.575000 0.563127
vt 0.625000 0.563127
vt 0.425000 0.688440
vt 0.375000 0.688440
vt 0.475000 0.688440
vt 0.525000 0.688440
vt 0.575000 0.688440
vt 0.575000 0.563127
vt 0.625000 0.563127
vt 0.625000 0.688440
vt 0.575000 0.688440
vt 0.373591 0.064409
vt 0.548284 0.007647
vt 0.500000 0.150000
vt 0.373591 0.248091
vt 0.548284 0.304853
vt 0.656250 0.156250
vt 0.548284 0.992353
vt 0.373591 0.935591
vt 0.500000 0.837500
vt 0.373591 0.751909
vt 0.548284 0.695147
vt 0.656250 0.843750
vt 0.625000 0.688440
vn -0.174251 0.983752 0.043221
vn -0.174251 0.983752 0.043221
vn -0.174251 0.983752 0.043221
vn -0.174251 0.983752 0.043221
vn 0.713105 0.049908 0.699279
vn 0.713105 0.049908 0.699279
vn 0.713105 0.049908 0.699279
vn 0.713105 0.049908 0.699279
vn 0.517137 0.822371 0.237223
vn 0.517137 0.822371 0.237223
vn 0.517137 0.822371 0.237223
vn 0.517137 0.822371 0.237223
vn -0.420155 0.867217 -0.267218
vn -0.420155 0.867217 -0.267218
vn -0.420155 0.867217 -0.267218
vn -0.170575 0.949220 -0.264360
vn -0.170575 0.949220 -0.264360
vn -0.170575 0.949220 -0.264360
vn -0.214916 0.655517 -0.723953
vn -0.214916 0.655517 -0.723953
vn -0.214916 0.655517 -0.723953
vn -0.214916 0.655517 -0.723953
vn -0.688013 0.725205 -0.026764
vn -0.688013 0.725205 -0.026764
vn -0.688013 0.725205 -0.026764
vn -0.688013 0.725205 -0.026764
vn -0.259836 0.754693 0.602431
vn -0.259836 0.754693 0.602431
vn -0.259836 0.754693 0.602431
vn -0.259836 0.754693 0.602431
vn 0.566524 0.694230 0.443955
vn 0.566524 0.694230 0.443955
vn 0.566524 0.694230 0.443955
vn 0.566524 0.694230 0.443955
vn 0.649854 0.599877 -0.466730
vn 0.649854 0.599877 -0.466730
vn 0.649854 0.599877 -0.466730
vn 0.649854 0.599877 -0.466730
vn -0.196277 -0.173909 -0.965003
vn -0.196277 -0.173909 -0.965003
vn -0.196277 -0.173909 -0.965003
vn -0.196277 -0.173909 -0.965003
vn -0.969480 -0.233879 -0.073554
vn -0.969480 -0.233879 -0.073554
vn -0.969480 -0.233879 -0.073554
vn -0.969480 -0.233879 -0.073554
vn -0.305267 -0.058638 0.950460
vn -0.305267 -0.058638 0.950460
vn -0.305267 -0.058637 0.950460
vn -0.305267 -0.058637 0.950460
vn 0.723261 -0.066277 0.687387
vn 0.723261 -0.066277 0.687387
vn 0.723261 -0.066277 0.687387
vn 0.723261 -0.066277 0.687387
vn 0.857863 -0.087664 -0.506346
vn 0.857863 -0.087664 -0.506346
vn 0.857757 -0.032198 -0.513046
vn 0.857582 -0.026086 -0.513686
vn -0.163898 0.986471 -0.003501
vn -0.163898 0.986471 -0.003501
vn -0.163898 0.986471 -0.003501
vn -0.163898 0.986471 -0.003501
vn -0.173965 0.984744 0.003863
vn -0.173965 0.984744 0.003863
vn -0.173965 0.984744 0.003863
vn -0.173965 0.984744 0.003863
vn -0.163887 0.986464 0.005560
vn -0.163887 0.986464 0.005560
vn -0.163887 0.986464 0.005560
vn -0.163887 0.986464 0.005560
vn -0.173648 0.984808 -0.000001
vn -0.173648 0.984808 -0.000001
vn -0.173648 0.984808 -0.000001
vn -0.173648 0.984808 -0.000001
vn -0.253465 0.959769 -0.120825
vn -0.253465 0.959769 -0.120825
vn -0.253465 0.959769 -0.120825
vn -0.253465 0.959769 -0.120825
vn 0.000000 -1.000000 0.000000
vn 0.000000 -1.000000 0.000000
vn 0.000000 -1.000000 0.000000
vn 0.000000 -1.000000 0.000000
vn 0.000000 -1.000000 0.000000
vn 0.000000 -1.000000 0.000000
vn 0.000000 -1.000000 0.000000
vn 0.000000 -1.000000 0.000000
vn 0.000000 -1.000000 0.000000
vn 0.000000 -1.000000 0.000000
vn 0.000000 -1.000000 0.000000
vn 0.000000 -1.000000 0.000000
vn 0.000000 -1.000000 0.000000
vn 0.000000 -1.000000 0.000000
vn 0.000000 -1.000000 0.000000
vn -0.085302 0.943624 0.319841
vn -0.085302 0.943624 0.319841
vn -0.085302 0.943624 0.319841
vn 0.154991 0.987638 0.023450
vn 0.154991 0.987638 0.023450
vn 0.154991 0.987638 0.023450
vn -0.076824 0.938635 -0.336248
vn -0.076824 0.938635 -0.336248
vn -0.076824 0.938635 -0.336248
vn -0.372171 0.897861 -0.235231
vn -0.372171 0.897861 -0.235231
vn -0.372171 0.897861 -0.235231
vn -0.424228 0.890895 0.162283
vn -0.424229 0.890895 0.162283
vn -0.424228 0.890895 0.162283
vn 0.832095 0.182469 -0.523759
vn 0.832095 0.182469 -0.523759
vn -0.927153 0.174586 -0.331523
vn -0.927153 0.174586 -0.331523
vn -0.927153 0.174586 -0.331523
vn -0.927153 0.174586 -0.331523
vn -0.831321 -0.182039 0.525134
vn -0.831322 -0.182039 0.525135
vn -0.831322 -0.182039 0.525135
vn -0.831322 -0.182039 0.525134
vn -0.105290 0.389661 0.914920
vn -0.105290 0.389661 0.914920
vn -0.105290 0.389661 0.914920
vn -0.105290 0.389661 0.914920
g treeTrunk
f 1/1/1 2/2/2 6/6/3 5/5/4
f 2/2/5 3/3/6 7/7/7 6/6/8
f 3/3/9 4/4/10 8/8/11 7/7/12
f 1/9/13 5/10/14 10/12/15
f 1/9/16 10/12/17 9/11/18
f 11/13/19 12/14/20 17/15/21 16/16/22
f 12/14/23 13/17/24 18/18/25 17/15/26
f 13/17/27 14/19/28 19/20/29 18/18/30
f 14/19/31 15/21/32 20/22/33 19/20/34
f 15/21/35 11/23/36 16/24/37 20/22/38
f 16/16/39 17/15/40 22/25/41 21/26/42
f 17/15/43 18/18/44 23/27/45 22/25/46
f 18/18/47 19/20/48 24/28/49 23/27/50
f 19/20/51 20/22/52 25/29/53 24/28/54
f 20/22/55 16/24/56 21/30/57 25/29/58
f 21/26/59 22/25/60 27/31/61 26/32/62
f 22/25/63 23/27/64 28/33/65 27/31/66
f 23/27/67 24/28/68 29/34/69 28/33/70
f 24/28/71 25/29/72 30/35/73 29/34/74
f 33/36/75 34/37/76 35/38/77 36/39/78
f 12/40/79 11/41/80 31/42/81
f 13/43/82 12/40/83 31/42/84
f 14/44/85 13/43/86 31/42/87
f 15/45/88 14/44/89 31/42/90
f 11/41/91 15/45/92 31/42/93
f 26/46/94 27/47/95 32/48/96
f 27/47/97 28/49/98 32/48/99
f 28/49/100 29/50/101 32/48/102
f 29/50/103 30/51/104 32/48/105
f 30/51/106 26/46/107 32/48/108
f 25/29/58 21/30/57 34/37/109 33/36/110
f 21/30/111 26/52/112 35/38/113 34/37/114
f 26/52/115 30/35/116 36/39/117 35/38/118
f 30/35/119 25/29/120 33/36/121 36/39/122
