# This file uses centimeters as units for non-parametric coordinates.

g default
v -0.526282 0.000000 0.526282
v 0.526282 0.000000 0.526282
v -0.526282 0.057315 0.526282
v 0.526282 0.057315 0.526282
v -0.526282 0.057315 -0.526282
v 0.526282 0.057315 -0.526282
v -0.526282 0.000000 -0.526282
v 0.526282 0.000000 -0.526282
v -0.345624 0.636614 0.345624
v 0.356710 0.499957 0.337708
v 0.373744 0.437577 -0.345624
v -0.345624 0.767895 -0.345624
v -0.247776 0.707880 0.266068
v 0.261111 0.685413 0.251049
v 0.127396 0.829214 -0.243886
v -0.151402 1.030849 -0.228867
v 0.500000 0.000000 0.600000
v 0.600000 0.000000 0.500000
v 0.600000 -0.000000 -0.500000
v 0.500000 -0.000000 -0.600000
v -0.500000 -0.000000 -0.600000
v -0.600000 0.000000 -0.500000
v -0.600000 0.000000 0.500000
v -0.500000 0.000000 0.600000
v -0.526282 -1.000000 0.526282
v 0.526281 -1.000000 0.526282
v 0.500000 -1.000000 0.600000
v -0.500000 -1.000000 0.600000
v 0.526281 -1.000000 -0.526281
v 0.599999 -1.000000 -0.500000
v 0.599999 -1.000000 0.500000
v -0.526282 -1.000000 -0.526281
v -0.500000 -1.000000 -0.599998
v 0.500000 -1.000000 -0.599998
v -0.600000 -1.000000 0.500000
v -0.600000 -1.000000 -0.500000
vt 0.375000 0.000000
vt 0.625000 0.000000
vt 0.375000 0.250000
vt 0.625000 0.250000
vt 0.375000 0.500000
vt 0.625000 0.500000
vt 0.375000 0.750000
vt 0.625000 0.750000
vt 0.375000 1.000000
vt 0.625000 1.000000
vt 0.875000 0.000000
vt 0.875000 0.250000
vt 0.125000 0.000000
vt 0.125000 0.250000
vt 0.375000 0.250000
vt 0.625000 0.250000
vt 0.625000 0.500000
vt 0.375000 0.500000
vt 0.375000 0.250000
vt 0.625000 0.250000
vt 0.625000 0.500000
vt 0.375000 0.500000
vt 0.500000 0.000000
vt 0.500000 1.000000
vt 0.625000 0.875000
vt 0.750000 0.000000
vt 0.625000 0.812500
vt 0.812500 0.000000
vt 0.500000 0.750000
vt 0.437500 0.750000
vt 0.250000 0.000000
vt 0.375000 0.875000
vt 0.312500 0.000000
vt 0.375000 0.937500
vt 0.437500 0.000000
vt 0.437500 1.000000
vt 0.625000 1.000000
vt 0.500000 1.000000
vt 0.437500 1.000000
vt 0.375000 1.000000
vt 0.625000 0.750000
vt 0.625000 0.812500
vt 0.625000 0.875000
vt 0.375000 0.750000
vt 0.437500 0.750000
vt 0.500000 0.750000
vt 0.375000 0.937500
vt 0.375000 0.875000
vn 0.941927 0.000000 0.335817
vn 0.941928 -0.000000 0.335814
vn 0.941928 -0.000000 0.335814
vn 0.264618 0.876055 0.403119
vn 0.264618 0.876055 0.403119
vn 0.264618 0.876055 0.403119
vn 0.264618 0.876055 0.403119
vn -0.941927 0.000000 -0.335817
vn -0.941927 -0.000000 -0.335818
vn -0.941927 -0.000000 -0.335818
vn 0.000000 -1.000000 0.000000
vn -0.000000 -1.000000 0.000000
vn 0.000000 -1.000000 0.000001
vn 0.000000 -1.000000 0.000001
vn 0.335816 0.000000 -0.941928
vn 0.335811 -0.000001 -0.941929
vn 0.335811 -0.000001 -0.941929
vn -0.335816 0.000000 0.941927
vn -0.335816 0.000000 0.941928
vn -0.335816 0.000000 0.941928
vn 0.030667 0.339351 0.940160
vn 0.030667 0.339351 0.940160
vn 0.030667 0.339351 0.940160
vn 0.030667 0.339351 0.940160
vn 0.931209 0.364465 -0.003959
vn 0.931209 0.364465 -0.003959
vn 0.931209 0.364465 -0.003959
vn 0.931209 0.364465 -0.003959
vn 0.058262 0.312539 -0.948117
vn 0.058262 0.312539 -0.948117
vn 0.058262 0.312539 -0.948116
vn 0.058262 0.312539 -0.948117
vn -0.962737 0.269678 0.020302
vn -0.962737 0.269678 0.020302
vn -0.962737 0.269678 0.020302
vn -0.962737 0.269678 0.020302
vn 0.086901 0.540893 0.836590
vn 0.086901 0.540893 0.836590
vn 0.086901 0.540893 0.836590
vn 0.086901 0.540893 0.836590
vn 0.858676 0.510095 -0.049784
vn 0.858676 0.510095 -0.049784
vn 0.858676 0.510095 -0.049784
vn 0.858676 0.510095 -0.049784
vn 0.158609 0.323951 -0.932684
vn 0.158609 0.323951 -0.932684
vn 0.158609 0.323951 -0.932684
vn 0.158609 0.323951 -0.932684
vn -0.750333 0.635408 0.182368
vn -0.750333 0.635408 0.182368
vn -0.750333 0.635408 0.182368
vn -0.750333 0.635408 0.182368
vn 0.000000 0.789464 0.613797
vn 0.000000 0.789464 0.613797
vn 0.000000 0.789464 0.613797
vn 0.000000 0.789464 0.613797
vn 0.335818 -0.000000 0.941927
vn 0.335818 -0.000000 0.941927
vn 0.335816 0.000000 0.941928
vn 0.613797 0.789464 -0.000000
vn 0.613797 0.789464 -0.000000
vn 0.613797 0.789464 -0.000000
vn 0.613797 0.789464 -0.000000
vn 0.941928 -0.000001 -0.335816
vn 0.941927 0.000000 -0.335817
vn 0.941928 -0.000001 -0.335816
vn 0.000000 0.789463 -0.613798
vn 0.000000 0.789463 -0.613798
vn 0.000000 0.789463 -0.613798
vn 0.000000 0.789463 -0.613798
vn -0.335812 -0.000000 -0.941929
vn -0.335812 -0.000000 -0.941929
vn -0.335817 0.000000 -0.941927
vn -0.613797 0.789464 0.000000
vn -0.613797 0.789464 0.000000
vn -0.613797 0.789464 0.000000
vn -0.613797 0.789464 0.000000
vn -0.941927 0.000000 0.335817
vn -0.941927 0.000000 0.335817
vn -0.941927 0.000000 0.335818
vn -0.000000 -1.000000 0.000000
vn -0.000001 -1.000000 0.000000
vn -0.000001 -1.000000 0.000000
vn -0.000000 -1.000000 0.000000
vn -0.000000 -1.000000 0.000000
vn -0.000000 -1.000000 0.000000
vn 0.000000 -1.000000 0.000000
vn 0.000000 -1.000000 0.000000
vn 0.941928 -0.000000 0.335814
vn 0.941928 -0.000000 0.335814
vn 0.000000 0.000000 1.000000
vn 0.000000 0.000000 1.000000
vn 0.000000 0.000000 1.000000
vn 0.000000 0.000000 1.000000
vn -0.941927 0.000000 0.335817
vn -0.941927 0.000000 0.335817
vn 0.335811 -0.000001 -0.941929
vn 0.335811 -0.000001 -0.941929
vn 1.000000 -0.000001 0.000000
vn 1.000000 -0.000001 0.000000
vn 1.000000 -0.000001 0.000000
vn 1.000000 -0.000001 0.000000
vn 0.335818 -0.000000 0.941927
vn 0.335818 -0.000000 0.941927
vn -0.941927 -0.000000 -0.335818
vn -0.941927 -0.000000 -0.335818
vn -0.000000 -0.000002 -1.000000
vn -0.000000 -0.000002 -1.000000
vn -0.000000 -0.000002 -1.000000
vn -0.000000 -0.000002 -1.000000
vn 0.941928 -0.000001 -0.335816
vn 0.941928 -0.000001 -0.335816
vn -0.335816 0.000000 0.941928
vn -0.335816 0.000000 0.941928
vn -1.000000 0.000000 0.000000
vn -1.000000 0.000000 0.000000
vn -1.000000 0.000000 0.000000
vn -1.000000 0.000000 0.000000
vn -0.335812 -0.000000 -0.941929
vn -0.335812 -0.000000 -0.941929
g mountain01
f 4/4/1 17/23/2 2/2/3
f 13/19/4 14/20/5 15/21/6 16/22/7
f 5/5/8 21/30/9 7/7/10
f 25/40/11 26/37/12 27/38/13 28/39/14
f 6/12/15 19/28/16 8/11/17
f 3/3/18 23/33/19 1/1/20
f 3/3/21 4/4/22 10/16/23 9/15/24
f 4/4/25 6/6/26 11/17/27 10/16/28
f 6/6/29 5/5/30 12/18/31 11/17/32
f 5/5/33 3/3/34 9/15/35 12/18/36
f 9/15/37 10/16/38 14/20/39 13/19/40
f 10/16/41 11/17/42 15/21/43 14/20/44
f 11/17/45 12/18/46 16/22/47 15/21/48
f 12/18/49 9/15/50 13/19/51 16/22/52
f 3/3/53 24/35/54 17/23/55 4/4/56
f 2/2/57 18/26/58 4/4/59
f 4/4/60 18/26/61 19/28/62 6/12/63
f 20/29/64 6/6/65 8/8/66
f 5/5/67 6/6/68 20/29/69 21/30/70
f 7/13/71 22/31/72 5/14/73
f 5/14/74 22/31/75 23/33/76 3/3/77
f 1/1/78 24/35/79 3/3/80
f 26/37/12 29/41/81 30/42/82 31/43/83
f 32/44/84 33/45/85 34/46/86 29/41/81
f 32/44/84 25/40/11 35/47/87 36/48/88
f 32/44/84 29/41/81 26/37/12 25/40/11
f 2/10/3 17/24/2 27/38/89 26/37/90
f 17/24/91 24/36/92 28/39/93 27/38/94
f 24/36/79 1/9/78 25/40/95 28/39/96
f 8/8/17 19/27/16 30/42/97 29/41/98
f 19/27/99 18/25/100 31/43/101 30/42/102
f 18/25/58 2/10/57 26/37/103 31/43/104
f 7/7/10 21/30/9 33/45/105 32/44/106
f 21/30/107 20/29/108 34/46/109 33/45/110
f 20/29/64 8/8/66 29/41/111 34/46/112
f 1/9/20 23/34/19 35/47/113 25/40/114
f 23/34/115 22/32/116 36/48/117 35/47/118
f 22/32/72 7/7/71 32/44/119 36/48/120
