# This file uses centimeters as units for non-parametric coordinates.

g Ground01:default1
v -0.409448 -0.542832 0.409448
v 0.409448 -0.542832 0.409448
v -0.500000 -0.333333 0.500000
v 0.500000 -0.333333 0.500000
v -0.500000 0.000000 0.500000
v 0.500000 0.000000 0.500000
v -0.500000 0.000000 -0.500000
v 0.500000 0.000000 -0.500000
v -0.500000 -0.333333 -0.500000
v 0.500000 -0.333333 -0.500000
v -0.409448 -0.542832 -0.409448
v 0.409448 -0.542832 -0.409448
v 0.207040 -0.826806 0.207040
v -0.207040 -0.826806 0.207040
v 0.207040 -0.826806 -0.207040
v -0.207040 -0.826806 -0.207040
v -0.345624 0.767895 -0.345624
v 0.373744 0.437577 -0.345624
v -0.345624 0.636614 0.345624
v 0.356710 0.499957 0.337708
v -0.151402 1.030849 -0.228867
v 0.127396 0.829214 -0.243886
v -0.247776 0.707880 0.266068
v 0.261111 0.685413 0.251049
vt 0.625000 0.083333
vt 0.375000 0.083333
vt 0.625000 0.166667
vt 0.375000 0.166667
vt 0.625204 0.249690
vt 0.374391 0.250087
vt 0.631041 0.506911
vt 0.369198 0.507003
vt 0.625000 0.583333
vt 0.375000 0.583333
vt 0.625000 0.666667
vt 0.375000 0.666667
vt 0.875000 0.083333
vt 0.875000 0.166667
vt 0.875086 0.249863
vt 0.125000 0.083333
vt 0.125000 0.166667
vt 0.124809 0.250010
vt 0.000000 0.000000
vt 1.000000 0.000000
vt 1.000000 1.000000
vt 0.000000 1.000000
vt 0.000000 0.000000
vt 1.000000 0.000000
vt 0.881459 0.999426
vt 0.196913 0.999589
vt 0.000000 0.000000
vt 1.000000 0.000000
vt 1.000000 1.000000
vt 0.196913 0.999589
vt 0.000000 0.000000
vt 1.000000 0.000000
vt 0.803087 0.999589
vt 0.000000 1.000000
vt 0.000000 0.000000
vt 1.000000 0.000000
vt 0.999709 1.376433
vt 0.000236 1.376329
vt 0.000000 0.000000
vt 1.000000 0.000000
vt 0.999962 1.155071
vt 0.000050 1.155087
vt 0.000000 0.000000
vt 1.000000 0.000000
vt 0.999962 1.155071
vt 0.000050 1.155087
vt 0.000000 0.000000
vt 1.000000 0.000000
vt 0.999962 1.155071
vt 0.000050 1.155087
vn 0.000000 -0.396758 0.917923
vn 0.000000 -0.396758 0.917923
vn 0.000000 -0.396757 0.917924
vn 0.000000 -0.396757 0.917924
vn 0.000000 0.000000 1.000000
vn 0.000000 0.000000 1.000000
vn 0.000000 0.000000 1.000000
vn 0.000000 0.000000 1.000000
vn 0.000000 0.000000 -1.000000
vn 0.000000 0.000000 -1.000000
vn 0.000000 0.000000 -1.000000
vn 0.000000 0.000000 -1.000000
vn 0.000000 -0.396758 -0.917923
vn 0.000000 -0.396758 -0.917923
vn 0.000000 -0.396757 -0.917924
vn 0.000000 -0.396757 -0.917924
vn 0.917924 -0.396757 0.000000
vn 0.917924 -0.396757 0.000000
vn 0.917924 -0.396757 0.000000
vn 0.917924 -0.396757 0.000000
vn 1.000000 0.000000 0.000000
vn 1.000000 0.000000 0.000000
vn 1.000000 0.000000 0.000000
vn 1.000000 0.000000 0.000000
vn -0.917924 -0.396757 0.000000
vn -0.917924 -0.396757 0.000000
vn -0.917924 -0.396757 0.000000
vn -0.917924 -0.396757 0.000000
vn -1.000000 0.000000 0.000000
vn -1.000000 0.000000 0.000000
vn -1.000000 0.000000 0.000000
vn -1.000000 0.000000 0.000000
vn 0.000000 -0.580420 0.814317
vn 0.000000 -0.580420 0.814317
vn 0.000000 -0.580420 0.814317
vn 0.000000 -0.580420 0.814317
vn 0.000000 -0.580420 -0.814317
vn 0.000000 -0.580420 -0.814317
vn 0.000000 -0.580420 -0.814317
vn 0.000000 -0.580420 -0.814317
vn 0.814317 -0.580420 0.000000
vn 0.814317 -0.580420 0.000000
vn 0.814317 -0.580420 0.000000
vn 0.814317 -0.580420 0.000000
vn -0.814317 -0.580420 0.000000
vn -0.814317 -0.580420 0.000000
vn -0.814317 -0.580420 0.000000
vn -0.814317 -0.580420 0.000000
vn 0.000000 -1.000000 0.000000
vn 0.000000 -1.000000 0.000000
vn 0.000000 -1.000000 0.000000
vn 0.000000 -1.000000 0.000000
vn 0.264617 0.876055 0.403119
vn 0.264617 0.876056 0.403119
vn 0.264617 0.876055 0.403119
vn 0.264617 0.876056 0.403119
vn 0.047414 0.246799 -0.967906
vn 0.047414 0.246799 -0.967906
vn 0.047414 0.246799 -0.967906
vn 0.047414 0.246799 -0.967906
vn -0.976544 0.214673 0.016664
vn -0.976544 0.214673 0.016664
vn -0.976544 0.214673 0.016664
vn -0.976544 0.214673 0.016664
vn 0.025998 0.268068 0.963049
vn 0.025998 0.268068 0.963049
vn 0.025998 0.268068 0.963049
vn 0.025998 0.268068 0.963049
vn 0.961069 0.276308 -0.000514
vn 0.961069 0.276308 -0.000514
vn 0.961069 0.276308 -0.000514
vn 0.961069 0.276308 -0.000514
vn 0.158609 0.323949 -0.932684
vn 0.158609 0.323950 -0.932684
vn 0.158609 0.323950 -0.932684
vn 0.158609 0.323950 -0.932684
vn -0.750334 0.635407 0.182367
vn -0.750334 0.635407 0.182367
vn -0.750334 0.635407 0.182367
vn -0.750334 0.635407 0.182367
vn 0.086901 0.540891 0.836592
vn 0.086901 0.540891 0.836592
vn 0.086901 0.540891 0.836592
vn 0.086901 0.540891 0.836592
vn 0.858676 0.510095 -0.049784
vn 0.858676 0.510095 -0.049784
vn 0.858676 0.510095 -0.049784
vn 0.858676 0.510095 -0.049784
g Ground01:ground Ground01:initialShadingGroup polySurface1
f 1/2/1 2/1/2 4/3/3 3/4/4
f 3/4/5 4/3/6 6/5/7 5/6/8
f 7/8/9 8/7/10 10/9/11 9/10/12
f 9/10/13 10/9/14 12/11/15 11/12/16
f 2/1/17 12/13/18 10/14/19 4/3/20
f 4/3/21 10/14/22 8/15/23 6/5/24
f 11/16/25 1/2/26 3/4/27 9/17/28
f 9/17/29 3/4/30 5/6/31 7/18/32
f 2/19/33 1/20/34 14/21/35 13/22/36
f 11/23/37 12/24/38 15/25/39 16/26/40
f 12/27/41 2/28/42 13/29/43 15/30/44
f 1/31/45 11/32/46 16/33/47 14/34/48
f 13/35/49 14/36/50 16/37/51 15/38/52
g polySurface1
f 22/47/53 21/48/54 23/49/55 24/50/56
f 8/39/57 7/40/58 17/44/59 18/43/60
f 7/40/61 5/41/62 19/45/63 17/44/64
f 5/41/65 6/42/66 20/46/67 19/45/68
f 6/42/69 8/39/70 18/43/71 20/46/72
f 18/43/73 17/44/74 21/48/75 22/47/76
f 17/44/77 19/45/78 23/49/79 21/48/80
f 19/45/81 20/46/82 24/50/83 23/49/84
f 20/46/85 18/43/86 22/47/87 24/50/88
