# This file uses centimeters as units for non-parametric coordinates.

g default
v -0.526282 0.057315 0.526282
v 0.526282 0.057315 0.526282
v -0.526282 0.057315 -0.526282
v 0.526282 0.057315 -0.526282
v -0.368499 0.286832 0.336596
v 0.356710 0.499957 0.337708
v 0.383450 0.208402 -0.345624
v -0.345624 0.204820 -0.345624
v -0.104738 0.768990 0.220408
v 0.094260 0.758899 0.215909
v 0.130441 0.619164 -0.044225
v -0.127881 0.581329 -0.036290
v -0.526282 0.000000 0.526282
v 0.526282 0.000000 0.526282
v -0.526282 0.000000 -0.526282
v 0.526282 0.000000 -0.526282
v 0.500000 0.000000 0.600000
v 0.600000 0.000000 0.500000
v 0.600000 0.000000 -0.500000
v 0.500000 0.000000 -0.600000
v -0.500000 0.000000 -0.600000
v -0.600000 0.000000 -0.500000
v -0.600000 0.000000 0.500000
v -0.500000 0.000000 0.600000
v -0.526282 -1.000000 0.526282
v 0.526281 -1.000000 0.526282
v 0.500000 -1.000000 0.600000
v -0.500000 -1.000000 0.600000
v 0.526281 -1.000000 -0.526281
v 0.599999 -1.000000 -0.500000
v 0.599999 -1.000000 0.500000
v -0.526282 -1.000000 -0.526281
v -0.500000 -1.000000 -0.599998
v 0.500000 -1.000000 -0.599998
v -0.600000 -1.000000 0.500000
v -0.600000 -1.000000 -0.500000
vt 0.375000 0.250000
vt 0.625000 0.250000
vt 0.625000 0.500000
vt 0.375000 0.500000
vt 0.375000 0.250000
vt 0.625000 0.250000
vt 0.625000 0.250000
vt 0.375000 0.250000
vt 0.625000 0.500000
vt 0.625000 0.500000
vt 0.375000 0.500000
vt 0.375000 0.500000
vt 0.625000 0.250000
vt 0.500000 0.000000
vt 0.625000 0.000000
vt 0.375000 0.500000
vt 0.437500 0.750000
vt 0.375000 0.750000
vt 0.375000 1.000000
vt 0.625000 1.000000
vt 0.500000 1.000000
vt 0.437500 1.000000
vt 0.875000 0.250000
vt 0.812500 0.000000
vt 0.875000 0.000000
vt 0.375000 0.250000
vt 0.312500 0.000000
vt 0.375000 0.000000
vt 0.437500 0.000000
vt 0.750000 0.000000
vt 0.500000 0.750000
vt 0.625000 0.500000
vt 0.625000 0.750000
vt 0.125000 0.000000
vt 0.250000 0.000000
vt 0.125000 0.250000
vt 0.625000 0.750000
vt 0.625000 0.812500
vt 0.625000 0.875000
vt 0.375000 0.750000
vt 0.437500 0.750000
vt 0.500000 0.750000
vt 0.375000 0.937500
vt 0.375000 0.875000
vt 0.625000 1.000000
vt 0.500000 1.000000
vt 0.437500 1.000000
vt 0.375000 1.000000
vt 0.625000 0.812500
vt 0.625000 0.875000
vt 0.375000 0.937500
vt 0.375000 0.875000
vn -0.065644 0.842197 -0.535159
vn -0.065644 0.842197 -0.535159
vn -0.065644 0.842197 -0.535159
vn -0.065644 0.842197 -0.535159
vn -0.059141 0.488782 0.870399
vn -0.059141 0.488782 0.870399
vn -0.059141 0.488782 0.870399
vn -0.059141 0.488782 0.870399
vn 0.883491 0.464010 -0.064324
vn 0.883491 0.464011 -0.064324
vn 0.883491 0.464010 -0.064324
vn 0.883491 0.464011 -0.064324
vn -0.001550 0.770920 -0.636930
vn -0.001550 0.770920 -0.636930
vn -0.001550 0.770920 -0.636930
vn -0.001550 0.770920 -0.636930
vn -0.744013 0.666886 -0.041338
vn -0.744013 0.666886 -0.041338
vn -0.744013 0.666886 -0.041338
vn -0.744013 0.666886 -0.041338
vn -0.063573 0.305234 0.950153
vn -0.063573 0.305234 0.950153
vn -0.063573 0.305234 0.950153
vn -0.063573 0.305234 0.950153
vn 0.737250 0.631706 -0.239606
vn 0.737250 0.631706 -0.239606
vn 0.737250 0.631706 -0.239606
vn 0.737250 0.631706 -0.239606
vn -0.032012 0.611737 -0.790413
vn -0.032012 0.611737 -0.790413
vn -0.032012 0.611737 -0.790413
vn -0.032012 0.611737 -0.790413
vn -0.848541 0.508632 -0.145845
vn -0.848541 0.508632 -0.145845
vn -0.848541 0.508632 -0.145845
vn -0.848541 0.508632 -0.145845
vn 0.941927 0.000000 0.335817
vn 0.941927 0.000000 0.335817
vn 0.941927 0.000000 0.335817
vn -0.941927 0.000000 -0.335817
vn -0.941927 0.000000 -0.335817
vn -0.941927 0.000000 -0.335817
vn 0.000000 -1.000000 0.000001
vn 0.000000 -1.000000 0.000001
vn 0.000000 -1.000000 0.000001
vn 0.000000 -1.000000 0.000001
vn 0.335816 0.000000 -0.941928
vn 0.335816 0.000000 -0.941928
vn 0.335816 0.000000 -0.941928
vn -0.335816 0.000000 0.941928
vn -0.335816 0.000000 0.941928
vn -0.335816 0.000000 0.941928
vn 0.000000 0.789464 0.613797
vn 0.000000 0.789464 0.613797
vn 0.000000 0.789464 0.613797
vn 0.000000 0.789464 0.613797
vn 0.335816 0.000000 0.941928
vn 0.335816 0.000000 0.941928
vn 0.335816 0.000000 0.941928
vn 0.613797 0.789464 0.000000
vn 0.613797 0.789464 0.000000
vn 0.613797 0.789464 0.000000
vn 0.613797 0.789464 0.000000
vn 0.941927 0.000000 -0.335817
vn 0.941927 0.000000 -0.335817
vn 0.941927 0.000000 -0.335817
vn 0.000000 0.789463 -0.613798
vn 0.000000 0.789463 -0.613798
vn 0.000000 0.789463 -0.613798
vn 0.000000 0.789463 -0.613798
vn -0.335817 0.000000 -0.941927
vn -0.335817 0.000000 -0.941927
vn -0.335817 0.000000 -0.941927
vn -0.613797 0.789464 0.000000
vn -0.613797 0.789464 0.000000
vn -0.613797 0.789464 0.000000
vn -0.613797 0.789464 0.000000
vn -0.941927 0.000000 0.335818
vn -0.941927 0.000000 0.335818
vn -0.941927 0.000000 0.335818
vn -0.000001 -1.000000 0.000000
vn -0.000001 -1.000000 0.000000
vn -0.000001 -1.000000 0.000000
vn -0.000001 -1.000000 0.000000
vn 0.000000 -1.000000 0.000000
vn 0.000000 -1.000000 0.000000
vn 0.000000 -1.000000 0.000000
vn 0.000000 -1.000000 0.000000
vn 0.000000 -1.000000 0.000000
vn 0.000000 -1.000000 0.000000
vn 0.000000 -1.000000 0.000000
vn 0.000000 -1.000000 0.000000
vn 0.000000 -1.000000 0.000000
vn 0.000000 -1.000000 0.000000
vn 0.000000 -1.000000 0.000000
vn 0.000000 -1.000000 0.000000
vn 0.941928 -0.000000 0.335814
vn 0.941928 -0.000000 0.335814
vn 0.941928 -0.000000 0.335814
vn 0.941928 -0.000000 0.335814
vn 0.000000 0.000000 1.000000
vn 0.000000 0.000000 1.000000
vn 0.000000 0.000000 1.000000
vn 0.000000 0.000000 1.000000
vn -0.941927 0.000000 0.335817
vn -0.941927 0.000000 0.335817
vn -0.941927 0.000000 0.335817
vn -0.941927 0.000000 0.335817
vn 0.335811 -0.000001 -0.941929
vn 0.335811 -0.000001 -0.941929
vn 0.335811 -0.000001 -0.941929
vn 0.335811 -0.000001 -0.941929
vn 1.000000 -0.000001 0.000000
vn 1.000000 -0.000001 0.000000
vn 1.000000 -0.000001 0.000000
vn 1.000000 -0.000001 0.000000
vn 0.335818 -0.000000 0.941927
vn 0.335818 -0.000000 0.941927
vn 0.335818 -0.000000 0.941927
vn 0.335818 -0.000000 0.941927
vn -0.941927 0.000000 -0.335818
vn -0.941927 0.000000 -0.335818
vn -0.941927 0.000000 -0.335818
vn -0.941927 0.000000 -0.335818
vn 0.000000 -0.000002 -1.000000
vn 0.000000 -0.000002 -1.000000
vn 0.000000 -0.000002 -1.000000
vn 0.000000 -0.000002 -1.000000
vn 0.941928 -0.000001 -0.335816
vn 0.941928 -0.000001 -0.335816
vn 0.941928 -0.000001 -0.335816
vn 0.941928 -0.000001 -0.335816
vn -0.335816 0.000000 0.941928
vn -0.335816 0.000000 0.941928
vn -0.335816 0.000000 0.941928
vn -0.335816 0.000000 0.941928
vn -1.000000 0.000000 0.000000
vn -1.000000 0.000000 0.000000
vn -1.000000 0.000000 0.000000
vn -1.000000 0.000000 0.000000
vn -0.335812 0.000000 -0.941929
vn -0.335812 0.000000 -0.941929
vn -0.335812 0.000000 -0.941929
vn -0.335812 0.000000 -0.941929
g mountain02
f 9/1/1 10/2/2 11/3/3 12/4/4
f 1/5/5 2/6/6 6/7/7 5/8/8
f 2/6/9 4/9/10 7/10/11 6/7/12
f 4/9/13 3/11/14 8/12/15 7/10/16
f 3/11/17 1/5/18 5/8/19 8/12/20
f 5/8/21 6/7/22 10/2/23 9/1/24
f 6/7/25 7/10/26 11/3/27 10/2/28
f 7/10/29 8/12/30 12/4/31 11/3/32
f 8/12/33 5/8/34 9/1/35 12/4/36
f 2/13/37 17/14/38 14/15/39
f 3/16/40 21/17/41 15/18/42
f 25/19/43 26/20/44 27/21/45 28/22/46
f 4/23/47 19/24/48 16/25/49
f 1/26/50 23/27/51 13/28/52
f 1/26/53 24/29/54 17/14/55 2/13/56
f 14/15/57 18/30/58 2/13/59
f 2/13/60 18/30/61 19/24/62 4/23/63
f 20/31/64 4/32/65 16/33/66
f 3/16/67 4/32/68 20/31/69 21/17/70
f 15/34/71 22/35/72 3/36/73
f 3/36/74 22/35/75 23/27/76 1/26/77
f 13/28/78 24/29/79 1/26/80
f 26/20/81 29/37/82 30/38/83 31/39/84
f 32/40/85 33/41/86 34/42/87 29/37/88
f 32/40/89 25/19/90 35/43/91 36/44/92
f 32/40/93 29/37/94 26/20/95 25/19/96
f 14/45/97 17/46/98 27/21/99 26/20/100
f 17/46/101 24/47/102 28/22/103 27/21/104
f 24/47/105 13/48/106 25/19/107 28/22/108
f 16/33/109 19/49/110 30/38/111 29/37/112
f 19/49/113 18/50/114 31/39/115 30/38/116
f 18/50/117 14/45/118 26/20/119 31/39/120
f 15/18/121 21/17/122 33/41/123 32/40/124
f 21/17/125 20/31/126 34/42/127 33/41/128
f 20/31/129 16/33/130 29/37/131 34/42/132
f 13/48/133 23/51/134 35/43/135 25/19/136
f 23/51/137 22/52/138 36/44/139 35/43/140
f 22/52/141 15/18/142 32/40/143 36/44/144
