# This file uses centimeters as units for non-parametric coordinates.

g default
v 0.000000 -0.121420 0.015910
v 0.015910 -0.121420 0.000000
v 0.000000 0.066080 0.015910
v 0.015910 0.066080 0.000000
v -0.015910 0.066080 0.000000
v 0.000000 0.066080 -0.015910
v -0.015910 -0.121420 0.000000
v 0.000000 -0.121420 -0.015910
v -0.023865 -0.121420 0.000000
v 0.000000 -0.121420 -0.023865
v 0.023865 -0.121420 0.000000
v 0.000000 -0.121420 0.023865
v 0.000000 -0.169833 0.000000
v 0.000000 0.066707 0.107128
v 0.000000 0.105100 0.107128
v -0.021889 0.105100 0.000000
v 0.021889 0.105100 0.000000
v 0.000000 0.105100 -0.107128
v 0.000000 0.066707 -0.107128
v -0.021889 0.066707 0.000000
v 0.021889 0.066707 0.000000
v 0.000000 0.101508 0.081932
v 0.000000 0.289008 0.081932
v 0.000000 0.476508 0.081932
v 0.000000 0.664008 0.081932
v 0.000000 0.851508 -0.000000
v 0.000000 0.664008 -0.081932
v 0.000000 0.476508 -0.081932
v 0.000000 0.289008 -0.081932
v 0.000000 0.101508 -0.081932
v -0.010143 0.101508 -0.046300
v 0.010143 0.101508 -0.046300
v -0.010143 0.101508 0.046300
v 0.010143 0.101508 0.046300
v 0.010143 0.289008 -0.046300
v 0.010143 0.289008 0.046300
v 0.010143 0.476508 -0.046300
v 0.010143 0.476508 0.046300
v 0.010143 0.664008 -0.046300
v 0.010143 0.664008 0.046300
v -0.010143 0.289008 -0.046300
v -0.010143 0.289008 0.046300
v -0.010143 0.476508 -0.046300
v -0.010143 0.476508 0.046300
v -0.010143 0.664008 -0.046300
v -0.010143 0.664008 0.046300
vt 0.375000 0.000000
vt 0.625000 0.000000
vt 0.375000 0.250000
vt 0.625000 0.250000
vt 0.375000 0.500000
vt 0.625000 0.500000
vt 0.375000 0.750000
vt 0.625000 0.750000
vt 0.375000 1.000000
vt 0.625000 1.000000
vt 0.875000 0.000000
vt 0.875000 0.250000
vt 0.125000 0.000000
vt 0.125000 0.250000
vt 0.375000 0.750000
vt 0.625000 0.750000
vt 0.625000 1.000000
vt 0.375000 1.000000
vt 0.500000 0.875000
vt 0.500000 0.250000
vt 0.625000 0.375000
vt 0.375000 0.375000
vt 0.500000 0.500000
vt 0.500000 0.750000
vt 0.625000 0.875000
vt 0.375000 0.875000
vt 0.500000 1.000000
vt 0.750000 0.000000
vt 0.875000 0.000000
vt 0.875000 0.250000
vt 0.750000 0.250000
vt 0.500000 0.000000
vt 0.125000 0.000000
vt 0.250000 0.000000
vt 0.250000 0.250000
vt 0.125000 0.250000
vt 0.791667 0.000000
vt 0.875000 0.000000
vt 0.875000 0.062500
vt 0.791667 0.062500
vt 0.708333 0.000000
vt 0.708333 0.062500
vt 0.500000 0.000000
vt 0.500000 0.062500
vt 0.875000 0.125000
vt 0.791667 0.125000
vt 0.708333 0.125000
vt 0.500000 0.125000
vt 0.874710 0.187547
vt 0.791667 0.187500
vt 0.708333 0.187500
vt 0.500000 0.187512
vt 0.750000 0.250000
vt 0.125000 0.000000
vt 0.208333 0.000000
vt 0.208333 0.062500
vt 0.125000 0.062500
vt 0.291667 0.000000
vt 0.291667 0.062500
vt 0.208333 0.125000
vt 0.125000 0.125000
vt 0.291667 0.125000
vt 0.208333 0.187500
vt 0.125290 0.187547
vt 0.291667 0.187500
vt 0.250000 0.250000
vn 0.707107 0.000000 0.707107
vn 0.707107 0.000000 0.707107
vn 0.707107 0.000000 0.707107
vn 0.707107 0.000000 0.707107
vn -0.707107 0.000000 -0.707107
vn -0.707107 0.000000 -0.707107
vn -0.707107 0.000000 -0.707107
vn -0.707107 0.000000 -0.707107
vn 0.707107 0.000000 -0.707107
vn 0.707107 0.000000 -0.707107
vn 0.707107 0.000000 -0.707107
vn 0.707107 0.000000 -0.707107
vn -0.707107 0.000000 0.707107
vn -0.707107 0.000000 0.707107
vn -0.707107 0.000000 0.707107
vn -0.707107 0.000000 0.707107
vn 0.000000 1.000000 0.000000
vn 0.000000 1.000000 0.000000
vn 0.000000 1.000000 0.000000
vn 0.000000 1.000000 0.000000
vn 0.000000 1.000000 -0.000000
vn 0.000000 1.000000 -0.000000
vn 0.000000 1.000000 -0.000000
vn 0.000000 1.000000 -0.000000
vn -0.667708 -0.329138 -0.667708
vn -0.667708 -0.329138 -0.667708
vn -0.667708 -0.329138 -0.667708
vn 0.667708 -0.329138 -0.667708
vn 0.667708 -0.329138 -0.667708
vn 0.667708 -0.329138 -0.667708
vn 0.667708 -0.329138 0.667708
vn 0.667708 -0.329138 0.667708
vn 0.667708 -0.329138 0.667708
vn -0.667708 -0.329138 0.667708
vn -0.667708 -0.329138 0.667708
vn -0.667708 -0.329138 0.667708
vn 0.000000 1.000000 0.000000
vn 0.000000 1.000000 0.000000
vn 0.000000 1.000000 0.000000
vn 0.000000 1.000000 0.000000
vn 0.000000 -1.000000 0.000000
vn 0.000000 -1.000000 0.000000
vn 0.000000 -1.000000 0.000000
vn 0.000000 -1.000000 0.000000
vn 1.000000 0.000000 0.000000
vn 0.979757 0.000000 -0.200189
vn 0.979757 0.000000 -0.200189
vn 1.000000 0.000000 0.000000
vn 0.979757 0.000000 0.200189
vn 0.979757 0.000000 0.200189
vn -0.979757 0.000000 -0.200189
vn -1.000000 0.000000 0.000000
vn -1.000000 0.000000 0.000000
vn -0.979757 0.000000 -0.200189
vn -0.979757 0.000000 0.200189
vn -0.979757 0.000000 0.200189
vn 0.961791 0.000000 -0.273787
vn 0.961791 0.000000 -0.273787
vn 0.961791 0.000000 -0.273787
vn 0.961791 0.000000 -0.273787
vn 1.000000 0.000000 0.000000
vn 1.000000 0.000000 0.000000
vn 1.000000 0.000000 0.000000
vn 1.000000 0.000000 0.000000
vn 0.961790 0.000000 0.273787
vn 0.961790 0.000000 0.273787
vn 0.961790 0.000000 0.273787
vn 0.961790 0.000000 0.273787
vn 0.961791 0.000000 -0.273787
vn 0.961791 0.000000 -0.273787
vn 0.961791 0.000000 -0.273787
vn 0.961791 0.000000 -0.273787
vn 1.000000 0.000000 0.000000
vn 1.000000 0.000000 0.000000
vn 1.000000 0.000000 0.000000
vn 1.000000 0.000000 0.000000
vn 0.961791 0.000000 0.273787
vn 0.961791 0.000000 0.273787
vn 0.961791 0.000000 0.273787
vn 0.961791 0.000000 0.273787
vn 0.961791 0.000000 -0.273787
vn 0.961791 0.000000 -0.273787
vn 0.961791 0.000000 -0.273787
vn 0.961791 0.000000 -0.273787
vn 1.000000 0.000000 0.000000
vn 1.000000 0.000000 0.000000
vn 1.000000 0.000000 0.000000
vn 1.000000 0.000000 0.000000
vn 0.961791 0.000000 0.273787
vn 0.961791 0.000000 0.273787
vn 0.961791 0.000000 0.273787
vn 0.961791 0.000000 0.273787
vn 0.954981 0.118789 -0.271848
vn 0.954981 0.118789 -0.271848
vn 0.954981 0.118789 -0.271848
vn 0.998540 0.054017 0.000000
vn 0.998540 0.054017 0.000000
vn 0.998540 0.054017 0.000000
vn 0.954980 0.118789 0.271848
vn 0.954980 0.118789 0.271848
vn 0.954980 0.118789 0.271848
vn -0.961791 0.000000 -0.273787
vn -0.961791 0.000000 -0.273787
vn -0.961791 0.000000 -0.273787
vn -0.961791 0.000000 -0.273787
vn -1.000000 0.000000 0.000000
vn -1.000000 0.000000 0.000000
vn -1.000000 0.000000 0.000000
vn -1.000000 0.000000 0.000000
vn -0.961790 0.000000 0.273787
vn -0.961790 0.000000 0.273787
vn -0.961790 0.000000 0.273787
vn -0.961790 0.000000 0.273787
vn -0.961791 0.000000 -0.273787
vn -0.961791 0.000000 -0.273787
vn -0.961791 0.000000 -0.273787
vn -0.961791 0.000000 -0.273787
vn -1.000000 0.000000 0.000000
vn -1.000000 0.000000 0.000000
vn -1.000000 0.000000 0.000000
vn -1.000000 0.000000 0.000000
vn -0.961791 0.000000 0.273787
vn -0.961791 0.000000 0.273787
vn -0.961791 0.000000 0.273787
vn -0.961791 0.000000 0.273787
vn -0.961791 0.000000 -0.273787
vn -0.961791 0.000000 -0.273787
vn -0.961791 0.000000 -0.273787
vn -0.961791 0.000000 -0.273787
vn -1.000000 0.000000 0.000000
vn -1.000000 0.000000 0.000000
vn -1.000000 0.000000 0.000000
vn -1.000000 0.000000 0.000000
vn -0.961791 0.000000 0.273787
vn -0.961791 0.000000 0.273787
vn -0.961791 0.000000 0.273787
vn -0.961791 0.000000 0.273787
vn -0.954981 0.118789 -0.271848
vn -0.954981 0.118789 -0.271848
vn -0.954981 0.118789 -0.271848
vn -0.998540 0.054017 0.000000
vn -0.998540 0.054017 0.000000
vn -0.998540 0.054017 0.000000
vn -0.954980 0.118789 0.271848
vn -0.954980 0.118789 0.271848
vn -0.954980 0.118789 0.271848
g sword
f 1/1/1 2/2/2 4/4/3 3/3/4
f 5/5/5 6/6/6 8/8/7 7/7/8
f 2/2/9 8/11/10 6/12/11 4/4/12
f 7/13/13 1/1/14 3/3/15 5/14/16
f 7/7/17 8/8/18 10/16/19 9/15/20
f 8/8/18 2/10/21 11/17/22 10/16/19
f 2/10/21 1/9/23 12/18/24 11/17/22
f 1/9/23 7/7/17 9/15/20 12/18/24
f 9/15/25 10/16/26 13/19/27
f 10/16/28 11/17/29 13/19/30
f 11/17/31 12/18/32 13/19/33
f 12/18/34 9/15/35 13/19/36
f 15/20/37 17/21/38 16/22/39
f 16/22/39 17/21/38 18/23/40
f 19/24/41 21/25/42 20/26/43
f 20/26/43 21/25/42 14/27/44
f 21/28/45 19/29/46 18/30/47 17/31/48
f 14/32/49 21/28/45 17/31/48 15/20/50
f 19/33/51 20/34/52 16/35/53 18/36/54
f 20/34/52 14/32/55 15/20/56 16/35/53
f 32/37/57 30/38/58 29/39/59 35/40/60
f 34/41/61 32/37/62 35/40/63 36/42/64
f 22/43/65 34/41/66 36/42/67 23/44/68
f 35/40/69 29/39/70 28/45/71 37/46/72
f 36/42/73 35/40/74 37/46/75 38/47/76
f 23/44/77 36/42/78 38/47/79 24/48/80
f 37/46/81 28/45/82 27/49/83 39/50/84
f 38/47/85 37/46/86 39/50/87 40/51/88
f 24/48/89 38/47/90 40/51/91 25/52/92
f 39/50/93 27/49/94 26/53/95
f 40/51/96 39/50/97 26/53/98
f 25/52/99 40/51/100 26/53/101
f 30/54/102 31/55/103 41/56/104 29/57/105
f 31/55/106 33/58/107 42/59/108 41/56/109
f 33/58/110 22/43/111 23/44/112 42/59/113
f 29/57/114 41/56/115 43/60/116 28/61/117
f 41/56/118 42/59/119 44/62/120 43/60/121
f 42/59/122 23/44/123 24/48/124 44/62/125
f 28/61/126 43/60/127 45/63/128 27/64/129
f 43/60/130 44/62/131 46/65/132 45/63/133
f 44/62/134 24/48/135 25/52/136 46/65/137
f 27/64/138 45/63/139 26/66/140
f 45/63/141 46/65/142 26/66/143
f 46/65/144 25/52/145 26/66/146
